<svg width="998" height="570" fill="none" xmlns="http://www.w3.org/2000/svg"><path d="M800.622 497.263s-2.355 0 0-11.779c2.354-11.782 2.354-29.845 7.066-35.343 4.712-5.494 20.421-11.778 32.199-18.059 11.783-6.284 18.849-14.136 23.561-14.136s3.141 7.066 9.425 0c6.284-7.07 7.066-.786 13.35 0l6.284.782s-1.572 6.284 0 10.21c1.569 3.927 3.926 4.713 9.421 3.144 5.498-1.572 12.568-16.073 14.922-17.459 2.358-1.39 5.498 14.315 7.07 19.813 1.569 5.499 12.565 19.635 16.491 27.487 3.926 7.853-25.133 43.978-31.413 45.55-6.284 1.569-25.133-1.572-28.273 0-3.14 1.569-10.109-14.136-10.551-15.708-.442-1.569-4.371.786-4.371.786s-9.421-7.067-15.705-6.284c-6.284.786-18.063 7.07-21.989 7.856-3.926.786-14.137 0-14.137 0l-5.498 4.712-7.852-1.572zm82.2 32.461s1.572-6.284 2.095-9.424c.522-3.14 6.284-4.189 6.284-4.189s1.568 6.284 0 9.424c-1.572 3.144-8.379 4.189-8.379 4.189z" fill="#F44A45"/><path d="M943.552 539.672s1.046-8.375 5.758-9.947c4.712-1.572 21.466-13.091 25.655-13.614 4.19-.523 0 9.424 0 9.424s-16.231 11.519-20.417 14.137c-4.189 2.617-11.582 2.754-10.996 0zm41.36-23.58s4.19-7.835 4.713-12.021c.522-4.189 4.189-7.329 4.189-7.329s1.568 8.88 2.095 9.673c.522.796 2.091 2.368 2.091 5.509 0 3.14-12.042 8.901-13.088 8.375-1.045-.523-1.554-1.077 0-4.207zM877.584 374.229s3.404 8.901 4.713 9.424c1.308.523 13.35 3.14 16.753 5.758 3.404 2.617 1.572 6.284 0 7.856-1.571 1.568 1.309 4.186 3.664 3.926 2.357-.263 4.975 1.046 5.761 2.617.786 1.569 5.235 3.404 6.543 2.355 1.309-1.046 2.881-5.235 4.713-5.758 1.831-.523 7.852-1.572 8.375 0 .526 1.568 4.189 4.803 5.761 6.067 1.568 1.263 5.498 1.094 8.375 0 2.881-1.095-1.308-2.141-2.877-3.186-1.572-1.049-3.93-2.621-5.238-6.807-1.309-4.19.526-5.498-2.877-7.33-3.404-1.835-18.063-11.782-21.989-12.828-3.93-1.049-17.281 2.095-21.207.786-3.926-1.308-3.926-3.666-4.972-4.189-1.049-.523-7.329-3.13-5.498 1.309z" fill="#167C51"/><path d="M939.103 388.103s4.189-.046 6.284 1.417c2.091 1.463 4.186 1.986 2.354 2.509-1.831.523-7.066 2.358-8.638.786s-2.372-4.874 0-4.712zm-89.961 11.541s3.274-3.056 5.895-3.056c2.621 0 5.894 1.526 5.894 1.526s-4.803 2.621-6.986 3.277c-2.182.653-6.371-.494-4.803-1.747zm-12.662-.561s2.621-2.933 5.021-3.368c2.403-.439 6.112.87 6.112.87s-2.618 1.284-5.565 2.498c-2.947 1.214-6.607 1.028-5.568 0zm-1.093 2.497s2.621.407 3.712 0c1.091-.407.656 2.649-.874 2.649-1.529 0-3.929-.151-2.838-2.649zm-9.418-3.538s2.418-1.284 4.632-1.743c2.217-.46 5.508-.779 4.87 0-.639.779-1.646 2.526-3.46 2.803-1.81.277-7.986-.168-6.042-1.06z" fill="#035755"/><path d="M795.271 389.52s2.737-2.052 6.961-1.424c4.228.631 9.698 1.656 13.179 2.67 3.48 1.017 8.705 4.989 10.94 4.859 2.238-.129 3.729 1.141.996 1.488-2.737.347-11.203.565-15.298-.526-4.098-1.091-8.585-3.653-11.813-3.902-3.225-.246-6.691-2.281-4.965-3.165zm43.609-1.544s-2.948-8.2-3.33-11.694c-.382-3.492 4.312-11.79 4.859-13.207.544-1.421 10.807-1.204 13.425-2.186 2.621-.982-.874 4.477-3.383 4.477-2.512 0-6.838.544-8.494 1.309-1.66.765-.786 3.056-.456 3.056.326 0 5.456.109 6.112.765.656.656-2.533 2.621-2.467 3.165.067.547 3.014 5.785 3.123 7.424.109 1.638-.765 6.221-1.312 5.786-.544-.435-3.165-2.074-3.491-3.383-.33-1.312-1.313-3.494-2.621-3.712-1.309-.221-.657 3.712-.657 5.13 0 1.417-.859 4.354-1.308 3.07z" fill="#0C6C44"/><path d="M853.834 372.352s2.513.327 3.274 1.53c.765 1.2-.997 1.526-2.246 1.418-1.245-.109-2.993-2.73-1.028-2.948z" fill="#035755"/><path d="M862.569 368.422s-.109-3.273 0-5.02c.108-1.748.326-3.821 1.2-3.821.873 0 2.947 3.603 2.621 4.421-.327.817-1.106 3.764-1.92 4.42-.81.657-1.866 1.534-1.901 0z" fill="#0C6C44"/><path d="M868.028 373.225s2.291.021 3.274.611c.982.589 1.53 1.175.982 1.484-.544.305-2.947.126-3.6 0-.656-.13-2.059-2.196-.656-2.095z" fill="#035755"/><path d="M805.147 360.772c.322-.116 4.477-1.737 7.203-1.737 2.73 0 5.351-6.877 8.515-7.315 3.165-.435 5.544-6.547 7.958-7.53 2.414-.982 8.056 1.853 7.474 2.726-.586.874-2.769 3.277-3.642 4.913-.874 1.638-.218 6.224.438 7.75.653 1.53 2.835 3.604 2.456 4.042-.382.435-5.866 11.351-6.726 13.098-.86 1.747-2.716 3.165-5.01 3.274-2.291.112-9.912-.653-11.996-1.635-2.085-.983-3.614-5.27-4.158-6.674-.548-1.407-1.856-3.263-1.965-5.116-.112-1.856-1.291-5.529-.547-5.796z" fill="#167C51"/><path d="M763.232 345.717s7.203 2.513 8.733 3.713c1.529 1.2 5.785 6.877 8.406 9.715 2.618 2.839 6.986 5.895 7.313 7.203.326 1.313 6.834 11.137 7.129 12.337.295 1.2 1.344 6.442 0 6.551-1.344.108-8.329-1.748-9.529-3.386-1.204-1.635-7.207-7.095-7.425-9.498-.217-2.4-2.73-9.842-4.038-11.579-1.309-1.737-3.93-1.628-4.804-2.828-.873-1.203-3.165-6.659-4.694-7.098-1.527-.435-2.074-5.48-1.091-5.13z" fill="#0C6C44"/><path d="M793.14 371.37s0 3.204 1.2 3.951c1.2.744 1.856 1.726 2.294 1.4.435-.33.762-1.621.435-2.884-.326-1.267-4.028-3.804-3.929-2.467z" fill="#035755"/><path d="M715.525 330.98v7.533c0 1.635 4.772 5.049 5.007 5.47.231.425 1.544-6.782 1.544-8.091 0-1.309-6.551-7.203-6.551-4.912z" fill="#0C6C44"/><path d="M543.101 231.831s2.21.572 2.947.817c.737.246 3.684 1.474 3.358 1.804-.33.326-3.684.491-4.014.491-.326 0-2.372.653-2.782 0-.411-.656-1.965-3.358-1.639-3.112.33.246 1.13-.263 2.13 0zm-32.091-10.398s3.028 1.639 4.011 1.885c.982.245 2.049 2.045 2.54 2.782.491.737-2.049-.081-2.54-.411-.491-.326-2.702-.491-3.439-1.063-.736-.572-1.343-3.6-.572-3.193zm-12.447-9.905s1.393 1.309 1.8 1.8c.41.491-.572 3.277 0 4.175.575.902-.797 3.032-.849 2.54-.049-.491-1.688-2.375-2.344-3.522-.653-1.144-.818-1.8-.653-2.948.162-1.143 1.253-2.807 2.046-2.045zm-1.637-7.124s-1.063 1.639 0 2.291c1.063.656 2.867 1.639 2.867 1.639s.161-.902 0-1.965c-.165-1.063-2.396-3.354-2.867-1.965zm-14.326 9.988s.736 1.19 1.228 1.333c.491.141 1.638-.575 2.045-.666.411-.095-1.635-1.077-1.635-1.323s-1.638.656-1.638.656zm-6.305 2.293s.41-.53 1.554-.961c1.147-.432 2.54-.348 2.947-.432.411-.081.085.737-.652 1.393s-1.719 1.554-3.193 1.719c-1.474.165-1.719.818-1.474.165.246-.656-.144-1.189.818-1.884z" fill="#035755"/><path d="M456.154 171.274s.548-1.965 1.53-3.604c.983-1.635.544-6.329.87-7.094.33-.765 3.277-5.021 3.386-5.351.109-.326-7.203-7.095-7.533-8.077-.326-.982.218-3.93.656-5.021.435-1.091 3.165-6.442 3.712-6.659.544-.218 2.183 0 2.183 0s.656 2.073 1.53 2.621c.87.543 2.947 1.308 3.491 1.856.547.544 1.091 7.75 1.308 8.403.222.656 4.042 8.624 4.478 8.845.438.218 4.912 3.709 5.02 4.148.109.435-.982 7.203-1.526 7.533-.547.326-5.568 1.744-6.115 1.852-.544.113-1.635 1.204-2.839 1.421-1.2.218-10.151-.873-10.151-.873zm-14.849-10.371s1.418-5.129 2.291-6.22c.874-1.095 3.495-3.06 4.477-3.495.983-.435 6.351-1.53 6.232-.983-.119.548-.555 4.148-.555 4.695 0 .544 1.309 3.165 1.2 3.93-.108.765-2.729 5.238-3.712 5.894-.982.657-7.968 2.292-8.185 1.639-.218-.656-.548-2.839-.548-2.839s-.765-.873-1.2-1.203c-.435-.326 0-1.418 0-1.418z" fill="#167C51"/><path d="M454.305 134.812s-1.867 1.898-2.193 2.477c-.326.579-.983 2.874-.656 2.761.33-.108 1.421-.761 2.186-1.2.761-.435 1.105-2.182 1.315-2.62.211-.436-.652-1.418-.652-1.418zm14.184-9.824s-1.965 2.074-2.291 2.839c-.33.765-1.295 2.291-.65 2.4.65.112 2.832-1.309 2.941-1.418.108-.109.326-.214.873-1.196.544-.986-.873-2.625-.873-2.625z" fill="#035755"/><path d="M603.744 85.799s.874-1.639 1.309-1.965c.438-.327 2.403-1.091 2.729-1.091.33 0 .874 2.73 0 3.056-.873.326-3.382 1.747-3.382 1.747s-.958-1.207-.656-1.747z" fill="#41294A"/><path d="M610.182 69.752s1.2-4.912 2.4-6.334c1.204-1.417 8.846-11.789 9.607-12.006.765-.218 3.603-1.639 5.025-2.183 1.417-.547 0 5.456 0 5.456s.435.113 1.417-.108c.982-.218 2.947-.544 2.947.108v3.386s-8.733 6.33-8.842 6.986c-.108.656-.438 6.442-.438 6.442.438 1.526 2.077 5.02 2.077 5.568 0 .544-.109 2.727-.109 2.727s-4.477-1.2-5.459-1.636c-.983-.438-3.93-4.912-4.477-5.133-.544-.217-2.4-1.309-2.948-1.744-.544-.438-1.2-1.53-1.2-1.53zm21.399-21.397s-1.2 1.2-1.639 2.074c-.435.873 1.639 1.856 2.621 2.512.983.653 2.839.544 3.604 0 .765-.547 4.038-3.747 4.038-3.747-.109-.73-2.947-1.93-3.93-1.93-.982 0-4.694 1.091-4.694 1.091zm14.531-4.039s-5.487.982-5.894 1.639c-.407.652 3.863 2.4 4.877 2.4 1.017 0 2.442.33 3.659 0 1.221-.327 3.253-2.948 3.253-2.948s-3.077-1.67-5.895-1.091z" fill="#0C6C44"/><path d="M619.733 407.284s-2.291 5.568-2.947 6.06c-.657.491-6.551 6.056-8.025 7.038-1.473.986-3.112 2.13-3.603 3.277-.491 1.147-2.618 4.421-2.291 5.077.326.653 1.8 2.456 1.8 3.274 0 .817-2.127 4.256-2.618 6.059-.491 1.8-1.474 9.168-.982 10.151.491.982 2.126 6.386 3.929 7.042 1.8.656 10.151-11.789 11.133-14.084.983-2.291.165-3.274 1.474-4.256 1.312-.982 2.786-13.428 3.277-14.901.491-1.474 2.126-2.292 2.291-2.948.165-.656-1.308-11.298-1.638-11.789-.327-.491-.162-1.309-1.8 0zm-17.518-83.51s.491.492 2.456 1.639c1.965 1.144 4.421-.982 6.551-.821 2.126.165 10.971-2.456 12.606-2.456 1.639 0 2.295.519 1.639 3.617-.656 3.098-3.93 16.526-5.239 18.982-1.312 2.456-16.154 16.537-19.294 19.649-3.14 3.112-10.182 11.789-10.344 12.607-.164.821.492 13.592 1.144 15.227.656 1.639 1.965 5.407 2.13 7.533.165 2.13-.656 17.032-1.309 18.996-.656 1.965-15.883 14.572-16.54 16.375-.656 1.8-1.638 4.748-.982 5.404.656.652 2.621 1.473 1.965 3.929-.656 2.457-1.74 4.583-2.183 5.569-.438.982-3.712.982-5.02 2.617-1.313 1.639-.983 5.569-1.965 8.351-.983 2.786-3.769 5.733-5.242 8.189-1.474 2.456-5.895 6.056-7.042 8.512-1.144 2.46-2.948 4.425-3.6 5.407-.656.983-12.772 1.965-15.228 2.947-2.456.983-3.603 3.109-5.403 3.274-1.804.165-6.06 0-6.06 0s-3.112-4.421-3.438-6.059c-.33-1.636-2.13-4.257-1.639-6.878.491-2.621-6.55-19.974-7.533-22.104-.982-2.13-1.309-15.393-1.474-18.34-.161-2.947-6.105-7.695-5.508-9.659.596-1.965.761-9.172 1.088-10.811.329-1.635 3.112-7.786 3.929-9.705.821-1.919.983-4.866.983-6.505 0-1.635-1.474-3.438-1.474-5.238 0-1.804.165-4.751.165-5.242 0-.491-9.989-15.719-10.972-17.028-.982-1.309-1.147-2.621-.982-4.747.165-2.13.544-4.916-.056-5.733-.6-.818-.544-8.351 0-9.825.547-1.473-2.891-5.403-2.891-5.403l-7.86-.982s-3.93-5.078-4.747-5.239c-.821-.165-3.768-.656-4.586-.165-.817.491-4.095 1.474-5.077 1.474h-6.059s-1.8 2.782-3.439 3.112c-1.635.326-3.6.653-3.6.653l-2.621-1.635s-4.421-.821-6.059-.492c-1.635.327-3.765 1.635-4.421 1.635-.653 0-2.948 0-3.439-.161-.491-.165-15.719-14.41-17.027-16.375-1.313-1.965-6.225-8.842-6.386-9.663-.165-.817-.821-8.021-.821-8.021l-2.291-1.968s.491-4.091.817-5.403c.326-1.309 3.439-6.386 3.93-7.204.491-.817-.818-2.456-.653-3.273.162-.821 1.8-3.278 1.8-3.278s-1.638-5.403-1.474-7.038c.165-1.638-.326-1.968.657-4.259.982-2.292.326-9.825.817-10.807.491-.983 11.789-10.481 13.428-10.807 1.635-.326 2.947-2.782 2.947-2.782s-.165-4.095.162-6.06c.329-1.965 7.698-11.207 9.006-12.073 1.313-.863 3.769-4.302 4.421-4.302h15.558c1.473 0 4.421-3.112 5.565-3.112 1.147 0 27.181.33 27.837 0 .657-.326 1.148 10.154 2.13 10.315.983.165 5.077 2.457 5.404 3.113.326.656 1.084 1.473 1.277 1.638.196.162 6.543 1.309 6.971 1.8.428.491 4.523 6.221 4.523 6.221s6.386 0 6.877-.326c.491-.327 2.947-5.569 3.439-6.221.491-.656 1.965-.656 3.603-.656 1.639 0 5.895 1.8 6.551 1.8.652 0 .982 4.586 1.308 5.077.327.491 2.292-2.291 2.783-2.291.491 0 9.989 2.291 11.136 2.782 1.148.491 11.684 11.042 13.59 12.094 1.908 1.049 7.041 15.414 7.698 16.561.652 1.148.817 4.586.817 4.586s2.783 1.965 3.274 3.604c.491 1.635 1.747 4.964 2.403 6.277.656 1.308 1.691 5.021 3.33 6.329 1.638 1.309 2.291 6.386 2.947 7.369.656.982.818 4.75 1.474 4.912.656.165 3.273 1.312 4.256 2.13.982.817 2.621 2.947 3.603 3.764.983.821.983 5.077.983 5.077z" fill="#167C51"/><path d="M279.527 567.755s-3.93-1.965-6.333-3.056c-2.4-1.091-5.021-3.056-5.021-3.056s-1.309-2.403-2.183-2.621c-.873-.217-4.803 2.4-4.803 2.4l2.839 6.333s5.238 1.747 6.333 2.183c1.091.438 9.168-2.183 9.168-2.183z" fill="#0C6C44"/><path d="M267.302 553.127l-1.748-5.238s5.895-5.895 6.551-8.081c.656-2.182.874-8.733.874-8.733l-2.621-3.273s6.768-10.042 7.206-11.789c.436-1.748 0-5.895 0-5.895s.436-1.091 1.965-1.53c1.527-.435 3.709-5.456 4.804-6.768 1.091-1.309 11.789-5.456 12.224-6.33.439-.873.874-3.929.874-3.929s-3.056-6.99-1.965-7.642c1.091-.656 6.112 0 6.112 0s10.698-10.919 15.284-16.375c4.586-5.46 4.147-14.628 5.459-17.905 1.309-3.274 18.993-11.568 20.522-14.189 1.527-2.621 5.678-19.431 5.678-19.431s1.743-12.881 2.399-14.846c.657-1.964 7.642-4.803 8.077-6.989.439-2.182 1.095-16.375 1.095-16.375s-11.571-3.056-12.01-4.582c-.435-1.53-.435-3.495-1.526-4.586-1.095-1.091-13.319-2.621-14.193-2.839-.874-.217-6.333-7.199-6.333-7.199s-9.793.88-11.337 0c-1.544-.878-1.87-2.842-1.87-2.842s.109-6.334 0-7.86c-.109-1.53-8.842-8.954-11.245-10.48-2.4-1.53-12.663-5.46-14.41-6.986-1.744-1.53-3.491-7.642-4.148-8.516-.652-.873-19.866-3.056-20.522-3.494-.656-.435-6.768-3.491-6.768-3.491s-3.056 3.491-4.147 2.838c-1.092-.656-1.965-5.024-2.839-5.024-.874 0-6.333 3.277-6.333 3.277s-4.582 1.091-5.674 2.182c-1.094 1.091-3.277 6.112-4.368 6.551-1.091.435-3.93 1.091-3.93 1.091s-1.308 3.712-.873 4.586c.438.874 2.621 5.021 2.621 5.021s-.439 8.733-1.091 9.389c-.657.653-9.607 12.673-9.825 13.758-.221 1.087 0 4.799 0 4.799s3.491 3.057 2.618 5.239c-.874 2.182-4.148 5.459-4.148 6.768 0 1.309 4.586 7.86 5.678 8.516 1.091.652 1.308 9.386 1.964 10.259.656.874 10.042 13.975 11.133 14.849 1.092.874 14.849 12.442 15.284 14.845.439 2.4 2.621 12.881 1.53 19.649-1.091 6.768-2.403 15.501-3.277 18.122-.874 2.618-.218 25.799-.653 27.747-.438 1.944-.873 5.003-1.53 5.656-.656.656.218 16.813.657 19.431.435 2.621 1.308 10.263 0 12.663-1.313 2.403-2.186 6.768-1.965 8.08.217 1.309 2.4 7.421 2.617 8.295.221.873.439 4.586.439 4.586l3.93 3.056.873 5.02s4.365 1.092 5.456 1.309c1.091.221 1.312-2.182 1.312-2.182s1.965 1.091 4.365.438c2.404-.656 1.748-2.621 1.748-2.621z" fill="#167C51"/><path d="M213.155 273.341s10.642-.491 11.79 0c1.147.491 11.627 7.203 12.61 7.694.982.491 6.386 2.948 6.386 2.948s-1.474 1.147-2.621 1.473c-1.148.33-9.169 0-9.169 0s-1.473-3.93-2.294-4.421c-.818-.491-5.73-3.108-6.877-3.438-1.148-.327-8.186 1.765-8.186 1.765s-2.947-1.927-3.439-2.583c-.491-.656 1.8-3.438 1.8-3.438zm17.52 16.21s3.603.657 4.912.983c1.309.326 2.783 2.291 2.783 2.291s-3.274-.326-3.846 0c-.575.33-3.849 0-3.849 0s-1.077-3.473 0-3.274zm13.264-.008s1.639.811 2.782 0c1.148-.81 2.786-2.449 3.769-2.449.982 0 4.912-.326 5.729 0 .818.33 3.277 1.295 2.621 2.449-.656 1.155-3.438 4.428-4.586 4.428-1.147 0-4.094.656-4.585 0-.492-.652-1.8-1-1.8-1s-2.291-.635-2.948-.8c-.656-.165-2.898-2.957-.982-2.628z" fill="#0C6C44"/><path d="M298.957 175.094s11.624-10.316 12.607-9.498c.982.821 0 5.733 0 5.733s1.505 1.144 3.13 1.309c1.621.165 2.438 5.077 2.768 5.73.326.656 0 6.385-1.147 6.385-1.148 0-3.604-1.8-3.604-1.8l-7.533-1.147-2.456-.982s-4.747-.818-4.582-1.474c.161-.653.817-4.256.817-4.256zm-66.644-70.41s3.112-6.22 4.421-7.041c1.308-.818 5.894-1.31 5.894-1.31s2.621 5.404 3.277 5.569c.653.162 4.583 2.782 4.583 2.782l-1.144.983h-6.716s-4.256 3.765-4.912 3.93c-.656.165-6.045-3.674-5.403-4.913zm7.696 6.058s-.818 2.456 0 2.621c.817.161 3.765-1.313 4.094-2.621l.327-1.309s-4.13.154-4.421 1.309zm15.722-4.257l-1.474 3.116s-.491.323 1.474-.169c1.964-.491 3.438-2.947 3.438-2.947s-1.638-1.309-3.438 0zm2.455-3.518s8.516 1.716 9.66 1.716c1.147 0 3.438 4.421 4.751 4.75 1.308.327 6.059.502 7.694 1.969 1.639 1.47 5.242 6.543 6.06 6.382.817-.165 0-2.621 0-2.621l-2.457-7.358s6.06 5.909 6.713 5.569c.656-.341 1.638-10.407 1.638-10.407s-4.586-6.144-4.747-6.635c-.165-.491.491-1.474 1.635-1.639 1.147-.161 5.568 4.425 7.207 4.26 1.635-.165 8.515-7.698 8.515-7.698s-16.866-10.316-15.557-10.807c1.309-.491 1.8-.652 1.8-1.308 0-.657 1.147-3.93 1.147-3.93s-7.694-9.007-8.842-9.007h-5.238s-.165-.165-2.456-1.8c-2.295-1.639-16.54-2.456-16.54-2.456s-2.947-4.586-3.439-4.912c-.491-.33-6.385 0-6.385 0s-3.604 8.02-4.095 7.368c-.491-.656 0-3.768 0-3.768l1.638-5.239-5.512.983s-6.768 7.203-6.607 8.024c.165.817.657 8.677.657 8.677s4.877 2.456 6.613 2.786c1.737.326 10.47.326 12.162.326 1.694 0 6.441-.656 6.441-.656l2.457-1.474 1.308 3.439s2.13 4.42 2.786 4.586c.653.165 6.221 1.965 6.221 1.965s-.491 6.22-.491 6.712c0 .49-4.912 4.915-5.73 5.568-.821.656-6.059 3.93-6.715 3.93-.653 0-3.509 2.463-2.292 2.705z" fill="#F44A45"/><path d="M267.682 84.214s-3.93 2.291-3.93 3.112c0 .818-.818 4.748 0 4.583.818-.162 3.439-3.27 3.93-3.846.491-.575 0-3.849 0-3.849zm-6.551-6.384s-2.13 0-2.947 1.147c-.818 1.144-1.502 2.29-1.502 2.29s2.319.327 3.302 0c.982-.325 1.965-1.645 1.965-1.645s.014-1.873-.818-1.793zM140.015 60.8s1.53 1.418 1.639 1.748c.108.326 0 3.273 0 3.273s10.15.656 10.589 0c.435-.652 1.417-4.038 2.182-4.365.765-.33 4.039-3.385 4.039-3.385s.656 4.003 0 4.02c-.656.018-.656 1.657-.656 1.657l.947 5.35s11.824.544 11.607.87c-.218.33-2.839 1.204-2.839 1.204s-7.968 1.091-8.186 1.526c-.217.439-.438 2.513-.438 2.513s7.751 3.712 8.954 4.364c1.2.656 5.238 1.204 5.895 1.091.652-.108 4.038-2.29 4.038-2.29s8.733.438 9.716.438c.982 0 4.256.853 5.021.807.764-.046 3.821 0 3.821 0s1.747-4.41 2.291-4.628c.547-.221 1.965-1.421 1.965-1.421s.108-1.418 0-2.074c-.109-.656-7.53-8.842-8.077-9.824-.548-.983-1.418-4.586-1.418-4.586h-3.168s-1.309 2.295-1.856 2.404c-.544.108-1.635-1.53-1.635-1.53l-3.93 1.42s-8.954-.438-9.498-.873c-.548-.438-3.165-2.403-3.165-2.403l-1.965.765-1.312-1.474s.874-.709 1.091-1.365c.221-.656-.109-2.182-.109-2.182s-6.985.217-7.312 0c-.33-.218-1.965-1.2-2.403-1.313-.435-.108-9.825 0-9.825 0s-2.838 4.695-2.947 5.46c-.109.765-3.056 4.803-3.056 4.803zm15.257-21.397s.245-1.09.789-1.53c.548-.434 9.063-4.911 9.607-5.13.547-.217 8.407 0 8.407 0s-1.639 2.962-2.295 3.282c-.652.322-5.347 2.505-5.347 2.505s-1.554 3.056-1.761 3.165c-.204.108-1.625-1.636-1.625-1.636s-7.954-.087-7.775-.656zm13.781 4.041s5.13-4.803 5.677-5.02c.544-.218 5.569 3.175 6.112 3.28.548.102.439 2.067.439 2.723 0 .656-2.947 3.273-2.947 3.712 0 .435-1.53.982-1.53.982s-.863-1.53-1.632-1.747c-.768-.218-5.792-.656-6.119-.765-.326-.109-.923-2.309 0-3.165zm23.688 10.806s1.091-.983 1.856-1.091c.765-.11 1.856 0 1.856 0s.765 2.508 0 2.838c-.764.327-2.403.874-2.403.874s-1.091-1.856-1.309-2.621zm9.718 5.349s.874-.435 1.856-.656c.983-.218 3.495 0 3.495 0s.435-1.091 0-1.635c-.439-.548-1.204-1.092-1.204-1.092v-1.228s5.895-.519 6.116-.957c.218-.435 1.2-.86 1.526-.92.327-.063 2.948 0 2.948 0s-1.418 2.776-1.856 2.776c-.435 0-1.856.982-1.856.982s.764.765 1.203 1.091c.435.33.982.983 1.091 1.639.109.656-.656 3.603-.656 3.603s-3.165 3.6-3.712 3.6c-.544 0-2.4.765-2.839 0-.435-.761-1.091-2.835-1.091-2.835s-3.273-.765-3.821-.986c-.544-.217-1.2-3.382-1.2-3.382z" fill="#F44A45"/><path d="M194.767 46.248s-.526-.922-1.263-1.333c-.737-.41-2.947-1.884-3.193-1.965-.245-.08-2.291-.617-2.372-1.249-.084-.635-.245-3.582.407-3.99.656-.41 2.541-1.066 2.541-1.066s.817 2.05 1.143 2.21c.33.166 1.541 1.229 2.737 1.229 1.197 0 3.161.82 3.161.82s-1.473 1.31-1.803 1.31c-.326 0-.572 1.964-.572 1.964l1.239.902s-1.727 1.607-2.025 1.168z" fill="#FA5652"/><path d="M181.29 31.98s-.474-1.392.754-1.719c1.228-.326 1.965-1.473 1.965-1.473s2.049-2.376 2.456-2.456c.41-.081 4.996 0 4.996 0s-2.049 2.42-2.049 2.807c0 .386.33 2.35.33 2.35s-1.067 2.046-1.474 2.13c-.41.08-5.157.572-5.322.492-.165-.085-1.656-2.13-1.656-2.13z" fill="#F44A45"/><path d="M180.079 28.46s-2.701.572-2.701 1.148c0 .572-1.965 2.291-1.639 2.372.33.084 2.151 0 2.151 0s1.698-1.064 2.189-1.39c.492-.33 1.474-2.53 0-2.13z" fill="#FA5652"/><path d="M198.828 45.454s1.719-.618 2.376-.618h2.371s-.326 1.8-1.635 2.21c-1.312.408-3.112.408-3.112.408s-1.452-1.547 0-2z" fill="#F44A45"/><path d="M220.77 56.378s2.537-1.147 3.603-.982c1.063.165 3.355-.407 3.355-.407s1.638-1.477 3.438-1.477h3.6s-1.39 2.786-1.881 3.358c-.491.572-2.863 1.308-2.863 1.308h-3.523s-1.554 2.376-2.045 2.54c-.491.162-1.884 1.31-2.291 1.31h-2.867s.218-5.151 1.474-5.65z" fill="#FA5652"/><path d="M222.571 53.083s1.8-1.126 3.357-1.126h3.93s-1.312 2.13-2.375 2.294c-1.063.162-5.239.327-5.484.407-.246.085.572-1.575.572-1.575z" fill="#FA5652"/><path d="M220.768 47.046s1.393-2.046 1.72-2.21c.326-.166 1.754-.552 3.417-.646 1.66-.092 3.951 0 3.951 0s-.246 3.673-1.228 3.919c-.983.245-4.586 1.228-5.895 1.558-1.309.326-1.965-2.621-1.965-2.621zm-13.589-3.28s1.775.414 2.646 1.07c.873.652 2.757 1.39 3.003 1.309.246-.081 2.537.115 3.028.182.491.063 1.803-4.056 1.803-4.056s1.39-1.856 1.635-2.186c.246-.326-.491-1.674-.491-1.674h-5.073s-1.067-.452-1.393-.372c-.327.081-2.512 2.292-2.512 2.292l-2.646 3.435zm-4.72-3.598l1.937-2.136s1.066.15 1.965 0c.901-.155.821 1.726.821 1.726s-1.639 1.901-1.885 1.73c-.245-.172-2.045 0-2.045 0s-1.705-.313-.793-1.32zm-3.139-8.151s.614 1.354 1.33 1.6c.715.245 1.54.901 1.54.901l1.386.492s-.326-2.628-.572-2.993c-.246-.365-4.028-.621-3.684 0zm13.944-7.842s-2.618-1.473-3.274-1.747c-.652-.274-2.81 0-2.81 0l-.79 1.747-2.568 2.12s-1.846 1.754-1.632 1.81c.214.056 3.604.326 4.993.491 1.39.165 5.646-.273 5.646-.273l1.473 1.884s1.639.628 2.13.628c.491 0 2.347-.274 2.347-.274s-.547-2.891-.873-3.22c-.327-.327-2.73-1.366-2.73-1.366s-1.365-1.495-1.912-1.8zm13.973 7.806s-3.274-.491-3.712-1.147c-.435-.653-1.144-1.418-1.144-1.418l-2.077-2.238s4.203-1.31 5.242-1.474c1.035-.165 3 1.691 3.165 1.909.164.22.491 1.53.491 1.53l.656 1.2 1.309 1.298s-3.151.477-3.93.34z" fill="#F44A45"/><path d="M229.311 32.254s1.856-.165 2.564 0c.709.165 1.365 1.073 1.365 1.073l.274 1.056s-2.73.162-3.056 0c-.33-.165-1.204-.382-1.639-.656-.435-.273.492-1.473.492-1.473zm-6.223 4.202s5.295-.11 6.113 0c.821.108 2.294.817 2.294.817l2.018.755s-2.291 1.101-2.73 1.21c-.435.109-3.165-.053-3.382 0-.218.056-2.088-.709-2.088-.709s-1.46.056-2.225-.052c-.765-.113-1.473-.93-1.473-.93s.656-1.365 1.473-1.091z" fill="#FA5652"/><path d="M177.568 48.791s4.913-2.105 6.112-1.873c1.204.235 7.099 0 7.099 0l4.638-.772-3.958-4.446-2.975-1.94-5.786 1.94-3.916-1.158-1.214 4.291v3.958zm45.521-10.315s3.954 2.02 3.944 2.02c-.014 0 2.715 1.836 3.698 1.681.982-.154 1.638 2.657 1.638 2.657l2.397 3.957 1.533.899s5.347-1.555 6.547-.899c1.204.656 4.151 2.088 4.586 1.699.439-.39 5.568-1.32 7.751-.8 2.182.522 6.768.866 6.768.866l3.695-1.765-4.13-3.957c-.656-.629-8.516-1.39-8.516-1.39s-9.933.109-10.263-.109c-.326-.22-2.729-3.66-3.056-3.575-.326.08-4.915-1.284-4.915-1.284h-11.677zm37.553 16.92s1.238 2.62 2.747 3.112c1.509.491 6.421.982 6.421.982h4.095s-2.46-3.93-4.095-4.094c-1.635-.165-9.168 0-9.168 0zm10.643-14.573s-1.8-1.614-2.621-1.544c-.818.07-2.127-.803-2.127-.803l-3.147 2.347s-2.94-1.614-4.074-1.544c-1.129.07-5.88 0-5.88 0l-3.93.481-5.894-.109-2.457-1.62s3.604-3.229 4.095-3.576c.491-.344 1.635-2.239 2.126-2.274.492-.035 2.786-.456 3.277 0 .492.457 2.127 1.144 2.127 1.144l.821-1.144-1.148-1.964-2.129-1.369 1.147-.435-1.147-1.842-2.948 1.842h-3.764l-7.86-.853-2.947-7.206-2.947-1.31s-.983-3.111 0-3.111c.982 0 3.656-3.109 3.656-3.109s3.056-4.421 3.712-4.421c.656 0 5.729 1.474 5.729 1.474s10.807 10.641 10.972 11.133c.165.49 1.309 4.782 1.965 4.684.656-.098 4.751.6 4.751.6s-.849-3.344-1.327-3.986c-.477-.642-2.631-3.428-2.631-3.428l1.663-.818s1.639-.165 3.603.983l1.965 1.147-.526-4.26-4.074-1.308-4.571-.491-4.393-1.474s-2.484-1.639-3.628-2.782c-1.148-1.148-1.312-3.113-1.312-3.113l4.94-2.13L256.685 3l2.631.817L263.39 3s4.288-1.474 6.421-1.965c2.13-.491 4.912.817 9.168 0 4.26-.821 5.568-1.05 7.207-.116 1.638.933 3.438.933 3.438.933l3.604-1.54s3.109.102 7.529 0c4.421-.098 6.386 0 6.386 0L311.073 3l5.077 1.473s3.768.162 4.26.653c.491.491-2.948 3.112-2.948 3.112l-9.498.983s-1.147 5.894-1.965 5.894c-.821 0-4.421 1.309-4.421 1.309s-6.55 2.62-7.859 2.947c-1.312.33-11.137 1.176-11.137 1.176s-.817 5.54-1.308 5.866c-.491.33-2.456 2.435-2.456 2.435l.652 1.495-8.512 6.066s2.291 1.327 1.309 2.87l-.982 1.544z" fill="#F44A45"/><path d="M286.677 30.014s1.638-2.29 2.621-2.62c.982-.327 5.894-1.31 5.894-1.31s6.877-2.455 8.186-2.782c1.312-.33 4.912-2.758 4.912-2.758s-3.273-.189-3.438-1.336c-.162-1.148.821-2.456.821-2.456s1.473-2.948 2.617-3.277c1.148-.327 6.404-1.965 6.404-1.965l2.438-2.127s11.137-3.277 12.937-4.094c1.803-.818 14.41.491 18.175 0 3.768-.491 6.059-.983 6.059-.983s1.965-1.308 4.586-1.965c2.621-.656 12.28-1.308 16.375-.817 4.091.491 7.038-1.256 7.038-1.256s22.761-.6 24.726 0c1.965.6 9.007 1.747 9.498 1.747.491 0 3.93 3.439 3.112 3.274-.817-.165-4.586.982-4.586.982s-16.701.818-17.518 1.309c-.821.491-.983 2.13-.492 2.13.492 0 20.466-.983 20.958-.818.491.162-2.127 4.091-1.309 4.091.817 0 4.747-1.965 5.238-1.965.492 0 18.288.492 19.379.492 1.091 0-1.039 2.786-1.039 2.786s-5.729 1.8-7.368 2.456c-1.639.656-1.8 3.764-2.621 3.764-.817 0-5.238 1.965-5.238 1.965s-1.148 4.586-1.8 6.06c-.656 1.473-2.786 3.273-2.786 3.273s1.312 2.786 1.803 3.604c.491.817 3.109 3.424 3.109 5.48v2.053s-5.403-1.653-5.895-2.053c-.491-.403-.491 2.053-.491 2.053l1.804 1.474s.491 10.806 0 11.789c-.492.982-1.804 3.93-1.804 3.93l-8.186-3.274s-.656 3.274 0 3.274c.653 0 3.93 2.62 3.93 2.62l.656 3.93s-4.424-1.638-5.733-2.456c-1.309-.82-1.474.653-1.474.653l.983.982 4.912 2.621s1.474 3.603 1.639 4.912c.164 1.313-.327 2.295-.327 2.295h-4.424l-2.291-2.13-3.439-.33-3.112.821-3.109.492-.491 2.13 4.912.817s5.239-.656 7.039 0c1.803.656-2.457 3.93-2.948 4.586-.491.652-6.056 4.582-6.712 4.582-.656 0-2.13-.326-7.694 0-5.569.33-8.846 1.312-8.846 1.312l-2.291 3.274s-3.274 2.947-3.765 3.439c-.491.49-4.259 1.147-4.259 1.147h-5.73s-.817 3.273-1.639 3.765c-.817.491-6.712 7.368-6.712 7.368s-3.277 8.024-4.421 9.989c-1.147 1.965-1.964 4.747-2.947 5.568-.982.818-3.438 3.274-3.438 3.274h-4.421l-9.663-7.042-3.439-11.133s-1.308-.165-1.473-1.309c-.162-1.147-3.113-10.971-3.113-10.971l.165-8.758 3.93-3.032 1.804-.982.161-4.912-1.144-.821-2.621 1.965h-2.621l1.147-4.748 2.292-1.965 4.259-.33-3.603-2.782-4.751-1.147s-.982-12.442-1.8-13.424c-.817-.983-3.719-3.86-3.719-3.86l-3.649-6.038-5.077-2.056-4.912-1.562-3.6-.077-3.604.077h-4.912l-3.603-2.424-2.621-.926 2.294-1.313 2.948-1.965 3.108-.817-.982-1.147h-5.239l-1.638-1.144-2.291-1.148zM409.65 96.169h4.094v2.13h2.456l4.913-2.13 8.841-.983 2.621 1.555 2.127 3.849-3.765 7.368-5.077 1.965-5.239 1.965-2.621-2.291-5.729-1.148-2.621-5.568v-.818l-1.148-2.456-2.782-.982 1.474-1.965 2.456-.491z" fill="#167C51"/><path d="M101.155 161.831l3.112 2.13 3.274 3.108 1.147 2.948v1.803l-3.768-2.456-3.109-2.54-.656-3.355v-1.638z" fill="#FA5652"/><path d="M89.365 131.538v6.877l-3.438-3.438v-4.747s2.13-.33 3.438 1.308z" fill="#DA5C5D"/><path d="M93.949 138.416l2.62 4.095v3.6l-2.62-2.292-2.456-2.456 2.456-2.947z" fill="#FF5476"/><path d="M33.527 134.309l3.273-3.263 3.113-2.456 1.308 1.61-2.126 2.81-1.72 2.457h-3.03l-.818-1.158z" fill="#DA5C5D"/><path d="M862.463 253.632v-8.288l1.656-3.645 2.986 2.652v9.281h-4.642zm4.641-14.917l3.645-4.972h6.298l2.737-3.347 2.569-4.278s.663 3.646 2.652-1.989l1.986-5.635v-3.979h5.305l3.646 1.99v13.891l-1.99 5.999-3.975 2.32-10.193 4.642s1.572 3.645-1.74 1.656l-3.316-1.99-4.642-1.326h-2.982v-2.982zm18.895-28.839v-4.308l2.982-4.309v-4.972h5.305l3.646 1.986 3.645 1.99-3.645 5.968-5.302 3.645h-6.631zm1.659-17.57l-1.657-12.596v-1.989l-4.477-5.965v-12.929h3.067l1.41 7.954 4.972 10.94 2.818 1.656v12.929h-6.133z" fill="#F44A45"/><path d="M801.361 296.503l4.421-3.758h4.196v3.758l-4.309 3.095h-.908l-3.4-3.095zm34.395-13.26l1.846-5.747 1.989-2.649 2.211-1.105 2.652 4.75-4.351 4.751v2.211l-4.347.884v-3.095zm1.846 13.923v7.954l-1.846 4.863 3.172 3.758 3.979 2.874 1.544-5.527v-13.922l-4.348-.993-2.501.993zm9.06 15.689l.884 3.758v1.326l3.095 2.428 1.105-3.754v-3.758l-1.547-1.105-3.537 1.105zm6.729 7.515v2.211l-1.646 3.978-2.543 1.102v3.316h1.217l2.972-1.326s2.551-2.432 3.656-3.976l1.105-1.547v-2.432l-4.761-1.326zm-13.285-3.758l5.385 1.769v1.989l-2.691.884-2.694-.884-.734-1.439.734-2.319zm-9.576 14.365l2.431-5.305 2.793-2.428h2.509l1.105 1.323-1.105 3.978-2.509 2.432-.803 3.979h-4.421v-3.979zm14.961 7.514l6.253-3.537 1.933-3.975h2.709l1.403 1.322.365 2.432v3.758l-.365 4.421-2.561.866-3.484-1.736v-1.783l-5.081 1.783h-1.172v-3.551z" fill="#0C6C44"/><path d="M975.771 99.663c-1.309-1.31-27.508-12.88-28.382-13.102-.873-.217-14.192-3.056-14.845-2.182-.656.873-1.095 4.586-1.965 4.368-.873-.217-2.403-.874-2.403-.874l-1.748-1.964s-12.445.435-13.754.435c-1.308 0-3.929 2.62-5.021 2.62-1.091 0-7.641-8.076-8.733-8.297-1.091-.218-19.704-.87-19.894-1.092-.193-.217-.845-2.838-2.375-3.273-1.53-.439-16.158-5.895-17.684-5.895h-14.849c-1.526 0-3.491 4.586-3.491 4.586s-14.192.435-15.501.653c-1.309.217-1.965 1.09-3.056 1.09s-8.081-10.476-9.607-10.915c-1.53-.435-9.172-1.308-11.137-1.09-1.964.217-3.708 1.964-5.238 1.747-1.53-.218-6.112.435-7.424-.44-1.309-.873-3.056-.722-4.365-1.343-1.309-.621-11.789-.838-12.881-1.056-1.091-.218-2.838-2.404-4.15-2.182-1.309.217-6.769 3.273-7.642 3.056-.87-.218 3.059-3.074 3.059-3.074s6.769-4.568 7.204-6.316c.438-1.747-2.621-3.93-3.713-5.456-1.091-1.53-3.491-2.838-4.803-3.06-1.309-.217-7.859-.873-10.042-1.743-2.182-.874-3.712-3.277-5.459-3.712-1.748-.439-3.93-.218-5.895 0-1.965.217-6.33 5.238-7.421 5.456-1.094.22-14.41 1.312-15.284 1.312-.873 0-6.55 4.365-8.298 4.582-1.743.221-5.894 1.748-7.203 3.06-1.309 1.309-2.621 6.112-4.368 6.112-1.744 0-6.986-.438-8.077.874-1.091 1.308-3.712 2.182-2.4 3.056 1.309.874 8.733 6.112 7.638 6.55-1.091.436-4.863-1.312-8-2.185-3.133-.87-5.754-1.092-6.406-.653-.657.435-1.748 3.712-3.06 3.491-1.309-.217-2.182-5.673-3.056-5.894-.874-.218-3.491.873-3.491 3.712 0 2.838 1.965 7.424 3.273 10.48 1.309 3.056 5.242 5.239 7.207 5.895 1.965.656 3.274 3.056 2.183 3.494-1.092.436-5.021-.22-5.677.218-.657.435-3.495 6.55-5.46 7.42-1.965.874-5.677 1.53-5.238.874.435-.652 3.712-6.112 3.494-9.606-.221-3.492-2.256-8.295-3.529-10.916-1.274-2.62.4-6.112 0-8.733-.404-2.617-7.39-2.617-9.572-1.747-2.183.873-4.586 4.368-5.021 6.55-.439 2.183 2.621 7.642 4.803 9.825 2.183 2.182.874 4.368-.217 4.368-1.095 0-7.863-5.677-11.793-7.642-3.93-1.965-9.168-1.747-11.133-1.53-1.965.221-2.838 3.495-1.309 3.278 1.527-.222 5.239 3.056 5.239 3.708 0 .656-13.972 1.095-15.937 1.53-1.964.439-4.368-.874-5.024-1.091-.653-.218-16.593 10.48-17.466 10.263-.87-.221-1.091-5.898-1.309-6.769-.218-.873-3.712-2.186-4.365-2.403-.656-.218-.873 3.495-1.091 5.02-.221 1.53-3.933 5.022-3.933 5.022l-6.112 5.242s1.747 3.491 0 3.491c-1.748 0-6.551-2.835-8.077-2.835-1.53 0 .435 4.663 0 4.951-.439.287-2.621 0-2.621 0s-7.204-10.628-6.33-11.502c.874-.874 6.547-.656 7.638.874 1.095 1.526-.217 1.965 1.095 1.526 1.309-.435 6.33-1.091 6.33-1.091s3.056-3.274 3.056-4.147c0-.874-21.396-14.628-22.705-15.067-1.309-.435-.438.439-3.273.439-2.839 0-3.934-.218-3.934-.218s-.87.218 0-1.747c.874-1.965-5.238-4.803-5.894-5.02-.653-.222-5.239 1.964-5.895 1.964-.652 0-3.93-.656-3.93-.656l-7.887 3.93s-5.21.873-6.084 1.747c-.874.874-5.021 1.091-5.677 1.747-.656.653-7.204 5.674-5.677 6.33 1.53.656 1.091 4.368 1.091 4.368s-13.972 15.719-15.936 17.466c-1.965 1.744-9.607 8.513-9.825 9.604-.217 1.094-2.182 4.151-1.091 4.803 1.091.656 3.056 1.965 3.056 2.839 0 .873.874 8.954 1.747 9.171.874.218 4.148.435 4.148.435s4.586-2.838 5.238-2.838c.656 0 3.828 7.642 4.533 8.733.709 1.091.927 5.46.927 5.46l3.494 1.526s5.895-1.309 7.421-2.183c1.53-.873 1.312-7.642 1.312-8.733 0-1.091 6.33-6.985 6.548-8.077.221-1.091-2.618-8.298-2.839-9.389-.217-1.091.874-6.112 1.965-7.203 1.095-1.091 3.277-1.091 4.368-2.404 1.091-1.308 5.677-7.638 6.768-8.512 1.092-.873 5.239-1.312 5.239-1.312s1.965 2.839.656 3.495c-1.309.656-7.207 4.803-7.642 5.894-.435 1.091-4.147 11.789-2.838 13.098 1.308 1.312 5.242 4.368 7.424 4.804 2.182.438 9.168-1.965 11.351-1.527 2.186.435 4.803 2.4 4.803 2.4s-8.077 1.091-9.607 1.748c-1.526.656-4.147 1.308-4.147 1.308s-.653 8.081-1.747 8.081c-1.092 0-5.456 1.744-5.456 1.744s-3.93 9.389-5.021 9.827c-1.091.435-24.017 1.092-25.982.435l-1.091-11.354s-3.277 1.965-3.93 2.839c-.656.874-1.091 9.389-1.965 10.045-.874.653-8.736 5.239-9.063 6.112-.326.874-10.589 14.193-12.333 13.972-1.747-.218-6.989-1.091-7.424.221-.435 1.309-.874 3.491-2.183 4.147-1.312.653-7.424 1.965-7.424 1.965s1.309 1.747 2.182 1.965c.874.217 2.839 0 2.839 0s3.712 6.112 4.586 6.768c.873.656-.218 8.516-.435 9.168-.221.657-4.586 0-5.895 0-1.312 0-5.459-1.091-5.459-1.091s-8.516 2.621-9.607 2.839c-1.091.217-3.056 2.182-2.183 3.273.874 1.095 2.183 3.06 2.183 3.06l-1.309 4.803-2.838 6.112s3.929 6.112 5.238 7.421c1.309 1.312 16.593-.435 17.466 0 .874.439 6.769-5.673 7.425-6.547.652-.874 0-7.207 0-7.207s8.515-4.582 9.606-6.112c1.092-1.53 1.092-5.021 1.092-5.021s10.041.435 11.35.218c1.312-.218 6.768-.874 6.768-.874s6.551 7.642 8.081 9.172c1.526 1.526 10.698 6.547 10.698 6.547s2.182 5.677 2.617 4.803c.439-.873.439-5.894.439-5.894s.435.217 1.747-.218c1.309-.435-11.789-8.95-12.663-11.354-.873-2.4-2.403-6.33-2.403-6.33s15.284 7.421 16.593 9.607c1.312 2.183 1.091 10.042 2.186 10.477 1.091.439 4.147 4.151 4.582 5.242.438 1.091 2.182 5.46 3.277 5.677 1.091.218 3.491 1.526 3.491 1.526s5.021-5.238 5.021-5.894c0-.653-3.491-4.804-3.93-5.895-.435-1.091 7.207-4.365 8.954-4.586 1.744-.217 5.239 1.313 5.239 1.313s-5.895 4.586-4.586 5.894c1.312 1.309 3.93 10.26 5.677 10.481 1.747.217 18.775-1.313 20.087 0 1.309 1.308 1.965 2.947 1.965 2.947s-.982 16.045-4.912 16.045c-3.93 0-11.789.33-10.154.983 1.638.656 6.189 7.649 12.228 10.806 3.712 1.944 13.248 18.414 13.578 21.361.327 2.947 13.821 33.003 16.442 34.315 2.617 1.309 30.455-11.136 33.403-12.445 2.947-1.309 13.427-16.375 13.427-18.014 0-1.635-7.203-14.08-7.859-15.063-.656-.982-11.789 5.239-13.754 4.586-1.965-.656-12.119-18.996-10.807-19.652 1.309-.652 6.547 2.295 6.547 2.295s4.912 9.168 6.551 9.494c1.639.33 11.463-1.965 12.772-1.635 1.312.327 1.964 5.895 3.929 5.895 1.13 0 7.884.33 13.674.765l12.066-13.761v-27.61l10.607-5.354 7.957-7.548 4.418-7.519v-29.76l8.842-4.716 9.245-1.288 3.274-10.017v-15.498l6.926-9.996h14.143v4.389l9.723 9.326h5.305l7.838 5.056h11.607l10.607 6.723 8.189.961 8.225 5.211h10.455l8.804-5.211 4.971-7.684 4.979-5.056v-3.719l-4.979-12.62-8.82-2.064-.885-7.757 4.734-6.147h4.971l4.979-9.576h9.533l5.386 5.898h7.46l11.522 9.825 8.028 2.621h10.319l2.54 7.852c5.19-.484 11.705-.845 12.253-.435.87.656 2.4 3.274 4.582 3.495 2.186.217 7.642-3.853 9.172-3.674 1.526.179-2.186-3.533-2.186-3.533s3.712-5.239 5.242-5.239c1.526 0 3.712 1.965 5.238 2.621 1.53.653 9.172-5.894 9.172-5.894s1.309 1.526 1.309 2.182c0 .653-8.298 13.537-10.042 14.628-1.748 1.091-4.369 3.712-4.369 3.712s-1.747 10.042-.873 11.789c.873 1.748 8.515 20.958 9.607 19.214 1.091-1.747 7.206-12.445 7.642-13.975.438-1.527-1.309-3.491 0-5.456 1.308-1.965 4.368-3.93 4.368-5.242 0-1.309-1.748-5.677-1.965-7.421-.221-1.747-2.621-3.06-2.621-3.06s.656-4.582 2.838-5.021c2.183-.435 2.622-2.182 6.551-2.4 3.93-.217 5.895-.438 5.895-.438s3.273 1.53 4.147 1.53c.874 0 5.456-9.172 6.768-8.951 1.309.218 4.586.874 5.456.435.874-.435 3.712-1.526 3.712-1.526s3.495-.874 3.495-2.186c0-1.309-3.277-7.86-4.368-8.295-1.091-.438-2.618-1.964-2.618-1.964s1.744-1.965 2.618-2.404c.874-.435 1.312-3.712 1.312-3.712s1.526-1.526 3.056 0c1.526 1.53 12.881 9.389 15.937 9.828l3.056.435v-5.46c0-1.091 1.747-4.147 1.747-4.147s-14.41-6.551-15.719-7.86z" fill="#167C51"/><path d="M872.5 130.234l-8.027-2.625-11.523-9.82h-7.459l-5.386-5.902h-9.533l-4.979 9.579h-4.972l-4.733 6.143.884 7.762 8.821 2.063 4.979 12.62v3.72l-4.979 5.052-4.972 7.688-8.803 5.207h-10.46l-8.22-5.207-8.19-.962-10.606-6.726h-11.607l-7.839-5.052h-5.305l-9.722-9.326v-4.393h-14.144l-6.926 9.999v15.498l-3.274 10.014-9.248 1.291-8.839 4.716v29.761l-4.421 7.519-7.954 7.547-10.607 5.354v27.606l-12.066 13.761c4.284.323 8.038.702 8.596 1.046 1.309.811 11.463 10.635 11.463 10.635l-2.621 1.965s3.604 4.259 5.242 4.586c1.635.329 7.86-2.292 7.86-2.292s1.964 14.411 2.291 15.719c.326 1.309 9.498 29.803 12.445 29.473 2.947-.326 5.895-5.894 7.533-9.824 1.635-3.93.653-12.772 2.291-15.063 1.639-2.295 6.551-2.295 7.204-4.259.656-1.965 3.603-8.842 3.603-8.842s8.189-.983 8.516-2.291c.326-1.309 1.638-5.239 1.638-5.239l9.168-3.933s2.292 7.533 3.93 7.863c1.639.326 8.189 6.547 8.189 6.547s-1.638 9.172-.656 9.498c.983.326 9.825-.656 9.825-.656s2.729 11.354.873 13.21c0 0 1.639 13.428 2.839 16.266 1.2 2.839 6.877 8.077 7.75 10.368.874 2.295 0 6.769 1.748 8.734 1.744 1.964 7.421 6.006 8.842 6.659 1.417.656.761-4.147.982-5.456.218-1.312-1.639-.765-1.639-4.151 0-3.382-.108-3.929-.656-5.456-.543-1.529-9.287-10.045-10.54-11.027-1.249-.983-2.996-3.165-3.322-4.365-.327-1.2-.218-6.986-.218-8.186 0-1.204 3.372-5.46 3.54-5.46.172 0 6.393 7.425 7.702 8.407 1.312.983 4.259 8.295 5.677 8.733 1.421.435 10.48-9.936 11.572-12.01 1.091-2.073 2.073-11.35 0-13.428-2.074-2.073-7.204-4.912-7.751-7.312-.544-2.403-2.291-6.55-1.2-8.189 1.091-1.635 5.13-4.691 6.003-4.912.874-.218 4.26 2.186 5.351 2.074 1.091-.109 3.6-.983 4.912-1.2 1.309-.218 12.88-5.895 15.28-8.734 2.404-2.838 12.228-17.901 11.902-20.304 0 0-2.898-4.365-2.214-5.677.684-1.309 2.221-4.583 2.221-4.583l-9.07-12.771s8.13-7.207 6.849-8.516c-1.281-1.309-16.4-1.965-15.719-3.603.684-1.639 7.235-10.481 8.217-10.481.983 0 2.618 6.877 2.618 6.877s8.189-1.965 9.498-.982c1.312.982 1.312 6.224 2.291 8.189.986 1.965 4.916 11.463 6.551 11.133 1.638-.326 2.947-4.912 6.55-5.238 3.604-.327 0-7.204 0-10.154 0-2.948-4.912-3.93-4.256-7.53.653-3.603 3.6-10.154 8.186-10.807 4.586-.656 10.481-5.568 13.428-9.498 2.947-3.929 6.551-17.684 4.912-22.925-1.639-5.239-1.965-12.772-1.965-12.772l-6.986-1.747s-5.021.656-5.021 0c0-.653-3.277-4.365-3.277-4.365s16.105-17.249 17.66-17.905c.582-.246 3.22-.582 6.333-.874l-2.541-7.852H872.5zm42.759 18.739l7.992 2.502 2.506 5.003 6.347 1.039v5.459l-6.347 15.968-10.498-14.985-.4-6.221.4-8.765zM805.151 360.772l3.492 1.902h4.417l3.87.68 3.695-2.582 3.929-5.172 3.755-3.867.519-2.54 3.238-2.319 2.011-1.842s-3.389-1.919-4.551-1.256c-1.165.663-3.094 1.923-3.094 1.923l-6.818 6.522-2.575 1.274-4.2 4.979-3.425.554s-4.028 1.27-4.263 1.744z" fill="#F44A45"/><path d="M185.343 237.621h-10.607l-14.586 3.4-4.877-3.4-8.382-2.28-10.607 2.28-20.603-1.4c.53 2.72 1.042 6.183 2.337 7.155 1.965 1.473 2.786 9.006 3.112 9.989.326.982.983 3.273 2.621 3.929 1.635.657 3.765 6.716 4.256 8.351.491 1.639 5.239 5.404 6.386 5.733 1.147.327 1.639-2.621 1.639-2.621s-3.93-5.238-4.26-6.55c-.326-1.309-1.8-5.404-1.965-5.895-.161-.491-3.6-11.789-2.947-11.789.656 0 1.473.326 1.473.326s4.586 10.807 5.242 12.281c.653 1.473 8.516 10.319 9.498 11.301.983.982 3.109 14.245 3.6 14.737.492.491 10.154 9.168 11.137 9.989.982.817 7.203 4.421 8.677 5.238 1.473.818 4.751.983 5.242.983.491 0 10.807.165 11.133.817.326.656 5.73 6.225 6.059 7.042.327.818 8.842.818 9.99 1.147 1.143.327 3.108 4.748 3.438 6.056.326 1.313 10.151 12.119 11.298 13.267 1.144 1.144 6.877 1.308 7.695 1.144.817-.162 2.782-1.144 3.438-1.8.656-.657.656-2.948.656-2.948s-1.638-1.8-2.456-1.8h-3.93s-5.894-3.933-6.385-5.077c-.492-1.147 1.143-16.54.817-17.192-.326-.656-11.954-2.621-12.445-3.604-.491-.982 0-4.094 0-4.094s3.603-8.186 3.603-9.168c0-.983-3.821-3.769-3.821-3.769s-13.536 7.86-14.354 8.351c-.821.491-12.936-.818-13.592-1.8-.653-.983.491-23.578.821-25.543.326-1.965 6.221-8.19 8.842-8.842 2.617-.656 16.375-.33 17.518-.821 1.148-.491 5.404-2.618 5.404-2.618l-8.182-7.105-11.933-3.4z" fill="#167C51"/><path d="M306.163 152.66l-7.695-9.659s-2.294-12.445-2.786-13.101c-.491-.656-4.256-4.586-4.256-4.586s-2.786 3.112-3.277 3.603l-1.965 1.965-6.221-.656s-1.638-10.477-2.291-10.968c-.656-.491-10.48-7.207-11.628-7.698-1.147-.491-8.676 1.147-9.333 1.147-.656 0-3.273 13.754-3.273 13.754s-1.804 2.456-2.13 2.947c-.326.492-.165 3.93.818 4.256.982.33.982 4.913.982 4.913l-2.456 6.059s-4.256 2.947-4.912 3.439c-.653.491-1.965 9.824-1.965 10.48 0 .656-1.323 4.912-2.628 4.256-1.302-.653-1.954-5.073-1.954-5.073l-3.113-1.639s-.982-5.568-1.473-7.042c-.492-1.474-8.516-5.895-8.516-5.895s-8.677-6.22-9.333-6.385c-.656-.165-6.551-2.291-6.551-2.291l-.817-2.786s-2.456-.818-2.786-1.309c-.326-.491-.491-4.747.491-5.895.983-1.147 12.284-16.21 13.266-16.701.983-.491 5.239-.982 5.239-.982s10.315-10.972 11.624-11.79c1.312-.82 6.39-1.965 6.39-1.965s6.712-2.13 7.368-2.62c.652-.492 1.8-10.972 1.144-11.79-.653-.82-7.039-1.638-7.695-1.312-.656.33-.817 3.769-2.621 4.425-1.8.652-6.712 5.238-6.712 5.238s-.656-7.533-1.147-7.533c-.492 0-4.586-.165-4.586-.165s-1.309-3.509-1.8-3.147c-.491.365-2.291-.025-2.291-.025s-.165-6.487-.821-8.287c-.653-1.804-4.256-3.439-4.256-3.439s-5.078 6.877-5.239 7.368c-.165.492 1.635 2.618 1.635 2.618l4.751 1.803s-1.804 2.783-1.965 3.6c-.165.821-3.438 1.804-3.438 1.804l-1.474-2.786-5.403-3.439s-4.916 2.948-4.586 3.93c.326.982 2.126 1.639 2.126 1.639l-1.635 1.803s-8.351.653-10.316.653c-1.965 0-11.136-2.456-12.119-2.291-.982.16-2.291 3.438-2.291 3.438s-5.733.326-6.386.165c-.656-.165-12.936-1.312-12.771-1.804.161-.49 1.8-2.13 1.8-2.13l-.656-1.473-12.446-1.474s-1.473-1.635-3.108-2.617c-1.639-.983-12.446-.983-12.446-.983s-1.308-1.803-2.621-2.13c-1.308-.326-15.392.657-15.392.657s-6.386 4.256-7.368 4.42c-.983.162-10.642-.82-10.642-.82s-5.895-4.091-7.533-4.256c-1.639-.165-13.428-1.309-14.41-1.639-.983-.326-4.583-1.8-4.583-1.8s-2.786.983-3.277.983c-.491 0-2.456-1.639-3.765-2.456-1.312-.818-16.701-1.965-18.013-1.31-1.31.653-4.913 2.457-4.913 2.457s-8.024 2.782-8.677 2.782c-.656 0-1.964 4.256-3.438 4.748-1.474.49-7.368.82-7.533 1.473-.165.656-.983 3.112-.983 3.112s4.748 2.786 5.077 3.439c.327.656-.49 3.112.653 3.603 1.147.492-2.782 1.474-3.6 1.309-.82-.161-5.733 1.639-5.733 1.639s-3.109 3.438-3.274 4.094c-.165.653 0 1.965 0 1.965s10.48-.165 10.48.818c0 .982-.49 3.764-.49 3.764s-6.716 2.456-7.042 3.439c-.327.982-6.716 5.898-7.042 6.716-.327.817-.165 9.333.817 9.989.986.652 2.295 1.473 2.295 1.473s0 2.783.165 3.439c.161.652 11.298 1.474 11.298 1.474s.491 4.42-.491 4.747c-.983.326-8.351 3.438-10.48 3.929-2.13.492-12.281 9.007-12.281 9.007s-1.148.983 0 1.148c1.144.161 10.15-4.913 10.642-4.913.49 0 6.877-.329 9.171-.491 2.291-.165 9.169-5.894 10.15-6.88.983-.983 3.275-5.074 3.275-5.074s4.259-1.638 5.403-2.13c1.147-.491 2.456-3.273 2.456-3.273l6.716-9.007s3.273 1.147 2.782 1.639c-.491.491-7.203 6.22-6.712 6.547.491.33-1.474 3.112-.491 2.786.982-.33 7.368-3.769 8.677-3.769 1.312 0 3.112-.326 3.112-.326s1.965-3.274 2.62-3.274c.653 0 3.274 2.948 3.93 3.109.653.165 14.902-.326 16.375.165 1.474.491 4.421 3.603 4.421 3.603s5.239.327 6.548.327c1.312 0 3.277 2.621 3.277 2.621s4.747 11.954 5.894 13.589c1.148 1.638 2.783 17.684 3.274 18.34.491.656 2.786 1.147 3.768 1.965.983.817 2.127 5.077 2.783 5.403.656.33 2.782 3.768 2.782 3.768s-3.438 3.439-4.091 3.93c-.656.491-.165 15.88-.983 17.028-.821 1.147-3.929 4.094-3.929 5.077 0 .982-.821 13.427-.33 16.375.491 2.947 6.059 18.01 7.698 18.175 1.635.165 2.947-.327 4.091 1.308.39.558.667 1.762.94 3.162l20.6 1.4 10.607-2.281 8.382 2.281 4.877 3.4 14.586-3.4h10.61l11.933 3.4 8.182 7.105s8.516 0 9.659.817c1.148.818 4.421 12.119 5.242 13.102.818.982 4.748 4.256 5.074 3.6.33-.653 2.13-4.583 2.13-4.583s-1.639-10.971-1.639-11.628c0-.656.656-4.747.33-5.729-.33-.983 10.316-9.172 11.789-10.154 1.474-.983 3.604-3.6 3.604-3.6s2.617-9.663 3.438-10.154c.818-.492 8.186-10.481 9.168-10.807.983-.326 6.06-3.112 7.042-3.765.983-.656 1.309-3.438 1.965-4.421.653-.982 6.221-5.077 6.221-5.077s5.242.491 6.06 0c.817-.491 4.42 0 4.42 0l9.169-5.733s-7.369-6.547-8.351-6.386c-.982.165-1.144-5.895-.653-6.712.492-.818 1.965-3.439 1.965-3.439s-.165-2.782.491-3.112c.653-.326 8.021-1.144 8.021-1.144s3.933 1.144 4.916 1.144c.982 0 14.08-9.498 14.08-9.498s-.326-5.565 0-6.056c.327-.491-3.438-2.13-3.438-2.13zm168.435 22.423l6.178 1.772 3.232-.884s2.54.695 4.021 0l1.481-.698v-4.074l-2.327-2.67-5.172-1.944s-6.034 6.951-7.413 8.498z" fill="#F44A45"/></svg>