<svg width="530" height="336" fill="none" xmlns="http://www.w3.org/2000/svg"><path d="M269.259 34h-1.697V22.592h-6.31V34h-1.688V21.203h9.695V34zm2.39-4.843c0-.931.182-1.77.545-2.513.369-.745.879-1.319 1.53-1.723.656-.404 1.403-.607 2.241-.607 1.295 0 2.341.449 3.138 1.345.802.897 1.204 2.089 1.204 3.577v.115c0 .925-.179 1.757-.536 2.496a4.01 4.01 0 01-1.521 1.713c-.656.41-1.412.616-2.268.616-1.289 0-2.335-.449-3.137-1.345-.797-.896-1.196-2.083-1.196-3.56v-.114zm1.635.194c0 1.054.243 1.901.73 2.54.492.638 1.148.958 1.968.958.827 0 1.483-.323 1.969-.967.487-.65.73-1.559.73-2.725 0-1.043-.249-1.887-.747-2.531-.493-.65-1.149-.976-1.969-.976-.803 0-1.45.32-1.943.958-.492.64-.738 1.553-.738 2.743zM282.495 34v-9.51h3.709c1.266 0 2.235.223 2.909.668.68.44 1.02 1.087 1.02 1.943 0 .439-.132.838-.396 1.195-.263.352-.653.621-1.169.809.575.134 1.035.398 1.38.79.352.393.528.862.528 1.407 0 .873-.323 1.54-.967 2.004-.639.463-1.544.694-2.716.694h-4.298zm1.626-4.175v2.865h2.69c.679 0 1.186-.125 1.52-.377.34-.253.51-.607.51-1.064 0-.95-.697-1.424-2.092-1.424h-2.628zm0-1.3h2.101c1.523 0 2.285-.446 2.285-1.336 0-.891-.721-1.351-2.162-1.38h-2.224v2.715zm10.283-.756h2.47c1.078.011 1.931.293 2.558.843.627.551.94 1.298.94 2.242 0 .949-.322 1.71-.967 2.285-.644.574-1.511.861-2.601.861h-4.026v-9.51h1.626v3.279zM303.765 34h-1.635v-9.51h1.635V34zm-9.361-4.904v3.577h2.417c.61 0 1.081-.155 1.415-.466.334-.316.501-.747.501-1.292 0-.527-.164-.958-.492-1.292-.322-.34-.776-.516-1.362-.527h-2.479zm13.975-4.606v8.183h3.48V24.49h1.626v8.183h3.472V24.49h1.635V34h-11.848v-9.51h1.635zm16.725 9.686c-1.289 0-2.337-.422-3.146-1.266-.809-.85-1.213-1.983-1.213-3.401v-.299c0-.943.179-1.784.536-2.523.364-.744.867-1.324 1.512-1.74a3.8 3.8 0 012.109-.633c1.237 0 2.198.408 2.883 1.222.686.815 1.028 1.98 1.028 3.498v.677h-6.442c.024.937.296 1.696.817 2.276.528.575 1.196.862 2.004.862.575 0 1.061-.118 1.459-.352a3.662 3.662 0 001.046-.932l.993.774c-.796 1.224-1.992 1.837-3.586 1.837zm-.202-8.526a2.16 2.16 0 00-1.652.721c-.445.475-.721 1.143-.826 2.004h4.764v-.123c-.047-.826-.27-1.465-.668-1.916-.399-.457-.938-.686-1.618-.686zM338.473 34h-1.626v-4.06h-4.368V34h-1.635v-9.51h1.635v4.122h4.368V24.49h1.626V34zm8.49 0c-.094-.188-.17-.522-.229-1.002-.755.785-1.658 1.178-2.707 1.178-.937 0-1.708-.264-2.311-.791-.598-.533-.897-1.207-.897-2.022 0-.99.375-1.758 1.125-2.302.756-.551 1.817-.827 3.182-.827h1.582v-.747c0-.568-.17-1.02-.51-1.353-.34-.34-.841-.51-1.503-.51-.58 0-1.066.146-1.459.44-.392.292-.589.647-.589 1.063h-1.634c0-.475.167-.932.501-1.371.34-.445.797-.797 1.371-1.055a4.643 4.643 0 011.907-.387c1.096 0 1.954.276 2.575.827.621.545.944 1.298.967 2.258v4.377c0 .873.111 1.568.334 2.083V34h-1.705zm-2.698-1.24c.509 0 .993-.131 1.45-.395.457-.263.788-.606.993-1.028v-1.951h-1.274c-1.993 0-2.989.583-2.989 1.749 0 .51.17.908.51 1.195.34.287.776.43 1.31.43zm13.886-8.27V34h-1.634v-3.7h-2.453l-2.241 3.7h-1.758l2.391-3.946c-.609-.223-1.078-.566-1.406-1.029-.322-.468-.484-1.013-.484-1.634 0-.868.326-1.565.976-2.092.65-.533 1.52-.803 2.61-.809h3.999zm-5.95 2.918c0 .463.158.838.475 1.125.316.281.735.425 1.257.43h2.584V25.81h-2.338c-.604 0-1.084.149-1.442.448a1.418 1.418 0 00-.536 1.151zm20.092-1.599h-3.19V34h-1.626v-8.191h-3.129V24.49h7.945v1.319zm4.825 8.367c-1.289 0-2.338-.422-3.146-1.266-.809-.85-1.213-1.983-1.213-3.401v-.299c0-.943.179-1.784.536-2.523.363-.744.867-1.324 1.512-1.74a3.8 3.8 0 012.109-.633c1.236 0 2.197.408 2.883 1.222.685.815 1.028 1.98 1.028 3.498v.677h-6.442c.023.937.296 1.696.817 2.276.527.575 1.195.862 2.004.862.574 0 1.061-.118 1.459-.352a3.675 3.675 0 001.046-.932l.993.774c-.797 1.224-1.992 1.837-3.586 1.837zm-.202-8.526a2.16 2.16 0 00-1.652.721c-.446.475-.721 1.143-.826 2.004h4.763v-.123c-.047-.826-.269-1.465-.668-1.916-.398-.457-.937-.686-1.617-.686zm11.276 6.197l3.235-7.357h2.03V34h-1.626v-6.917L388.755 34h-1.125l-3.138-7.066V34h-1.626v-9.51h2.11l3.216 7.357zM403.854 34h-1.625v-8.165h-4.377V34h-1.635v-9.51h7.637V34zm6.557.176c-1.289 0-2.338-.422-3.146-1.266-.809-.85-1.213-1.983-1.213-3.401v-.299c0-.943.178-1.784.536-2.523.363-.744.867-1.324 1.512-1.74a3.8 3.8 0 012.109-.633c1.236 0 2.197.408 2.883 1.222.685.815 1.028 1.98 1.028 3.498v.677h-6.442c.023.937.296 1.696.817 2.276.527.575 1.195.862 2.004.862.574 0 1.061-.118 1.459-.352a3.675 3.675 0 001.046-.932l.993.774c-.797 1.224-1.992 1.837-3.586 1.837zm-.202-8.526a2.16 2.16 0 00-1.652.721c-.446.475-.721 1.143-.827 2.004h4.764v-.123c-.047-.826-.269-1.465-.668-1.916-.398-.457-.937-.686-1.617-.686zm13.834 3.7c0 1.448-.331 2.614-.993 3.499-.662.884-1.559 1.327-2.69 1.327-1.154 0-2.062-.366-2.724-1.099v4.58h-1.626V24.49h1.485l.079 1.055c.662-.82 1.582-1.23 2.76-1.23 1.143 0 2.045.43 2.707 1.291.668.862 1.002 2.06 1.002 3.595v.15zm-1.626-.184c0-1.072-.229-1.919-.686-2.54-.457-.621-1.084-.932-1.88-.932-.985 0-1.723.437-2.215 1.31v4.544c.486.867 1.23 1.3 2.232 1.3.779 0 1.398-.307 1.855-.922.463-.621.694-1.541.694-2.76zM431.988 34c-.093-.188-.17-.522-.228-1.002-.756.785-1.658 1.178-2.707 1.178-.938 0-1.708-.264-2.312-.791-.597-.533-.896-1.207-.896-2.022 0-.99.375-1.758 1.125-2.302.756-.551 1.816-.827 3.181-.827h1.582v-.747c0-.568-.17-1.02-.509-1.353-.34-.34-.841-.51-1.503-.51-.58 0-1.067.146-1.459.44-.393.292-.589.647-.589 1.063h-1.635c0-.475.167-.932.501-1.371.34-.445.797-.797 1.371-1.055a4.643 4.643 0 011.907-.387c1.096 0 1.954.276 2.576.827.621.545.943 1.298.966 2.258v4.377c0 .873.112 1.568.334 2.083V34h-1.705zm-2.698-1.24c.51 0 .993-.131 1.45-.395.457-.263.788-.606.993-1.028v-1.951h-1.274c-1.992 0-2.988.583-2.988 1.749 0 .51.17.908.509 1.195.34.287.777.43 1.31.43zm13.544-6.951h-3.19V34h-1.626v-8.191h-3.129V24.49h7.945v1.319zm4.799 5.809l2.215-7.128h1.74l-3.823 10.978c-.592 1.582-1.533 2.373-2.822 2.373l-.307-.026-.607-.115v-1.318l.44.035c.551 0 .978-.111 1.283-.334.31-.223.565-.63.765-1.222l.36-.966-3.393-9.405h1.776l2.373 7.128zm13.447-2.268c0 1.448-.331 2.614-.993 3.499-.662.884-1.559 1.327-2.69 1.327-1.154 0-2.062-.366-2.724-1.099v4.58h-1.626V24.49h1.485l.079 1.055c.662-.82 1.582-1.23 2.76-1.23 1.143 0 2.045.43 2.707 1.291.668.862 1.002 2.06 1.002 3.595v.15zm-1.626-.184c0-1.072-.228-1.919-.685-2.54-.457-.621-1.084-.932-1.881-.932-.985 0-1.723.437-2.215 1.31v4.544c.486.867 1.23 1.3 2.232 1.3.78 0 1.398-.307 1.855-.922.463-.621.694-1.541.694-2.76zM469.025 34c-.093-.188-.17-.522-.228-1.002-.756.785-1.658 1.178-2.707 1.178-.938 0-1.708-.264-2.312-.791-.597-.533-.896-1.207-.896-2.022 0-.99.375-1.758 1.125-2.302.756-.551 1.816-.827 3.181-.827h1.583v-.747c0-.568-.17-1.02-.51-1.353-.34-.34-.841-.51-1.503-.51-.58 0-1.067.146-1.459.44-.393.292-.589.647-.589 1.063h-1.635c0-.475.167-.932.501-1.371.34-.445.797-.797 1.371-1.055a4.643 4.643 0 011.907-.387c1.096 0 1.955.276 2.576.827.621.545.943 1.298.966 2.258v4.377c0 .873.112 1.568.334 2.083V34h-1.705zm-2.698-1.24c.51 0 .993-.131 1.45-.395.457-.263.788-.606.994-1.028v-1.951h-1.275c-1.992 0-2.988.583-2.988 1.749 0 .51.17.908.51 1.195.339.287.776.43 1.309.43zm6.566 3.789l-.923-.633c.551-.768.838-1.559.861-2.373v-1.468h1.591v1.275c0 .591-.147 1.183-.44 1.775-.287.592-.65 1.066-1.089 1.424zm7.62-7.392c0-.931.181-1.77.545-2.513.369-.745.879-1.319 1.529-1.723.656-.404 1.403-.607 2.241-.607 1.295 0 2.341.449 3.138 1.345.803.897 1.204 2.089 1.204 3.577v.115c0 .925-.179 1.757-.536 2.496a4.01 4.01 0 01-1.521 1.713c-.656.41-1.412.616-2.267.616-1.289 0-2.335-.449-3.138-1.345-.797-.896-1.195-2.083-1.195-3.56v-.114zm1.634.194c0 1.054.244 1.901.73 2.54.492.638 1.148.958 1.969.958.826 0 1.482-.323 1.968-.967.487-.65.73-1.559.73-2.725 0-1.043-.249-1.887-.747-2.531-.492-.65-1.149-.976-1.969-.976-.803 0-1.45.32-1.942.958-.492.64-.739 1.553-.739 2.743zm14.291-2.259c0-.445-.169-.797-.509-1.055-.34-.264-.806-.395-1.398-.395-.574 0-1.054.149-1.441.448-.381.299-.571.65-.571 1.055h-1.618c0-.827.346-1.503 1.037-2.03.692-.528 1.556-.792 2.593-.792 1.114 0 1.981.24 2.602.72.621.476.931 1.155.931 2.04 0 .428-.128.82-.386 1.178-.258.357-.624.641-1.099.852 1.108.375 1.661 1.114 1.661 2.215 0 .873-.337 1.565-1.011 2.074-.673.51-1.573.765-2.698.765-1.095 0-2.001-.267-2.716-.8-.709-.539-1.063-1.265-1.063-2.18h1.617c0 .463.205.862.615 1.196.416.328.932.492 1.547.492.621 0 1.122-.144 1.503-.43.381-.288.571-.66.571-1.117 0-.533-.161-.914-.483-1.142-.316-.235-.811-.352-1.485-.352h-1.626v-1.371h1.766c1.108-.03 1.661-.486 1.661-1.371zM508.119 34h-1.626v-4.06h-4.368V34h-1.635v-9.51h1.635v4.122h4.368V24.49h1.626V34zm2.189-4.843c0-.931.181-1.77.545-2.513.369-.745.878-1.319 1.529-1.723.656-.404 1.403-.607 2.241-.607 1.295 0 2.341.449 3.138 1.345.802.897 1.204 2.089 1.204 3.577v.115c0 .925-.179 1.757-.536 2.496a4.01 4.01 0 01-1.521 1.713c-.656.41-1.412.616-2.267.616-1.289 0-2.335-.449-3.138-1.345-.797-.896-1.195-2.083-1.195-3.56v-.114zm1.634.194c0 1.054.244 1.901.73 2.54.492.638 1.148.958 1.969.958.826 0 1.482-.323 1.968-.967.487-.65.73-1.559.73-2.725 0-1.043-.249-1.887-.747-2.531-.492-.65-1.149-.976-1.969-.976-.803 0-1.45.32-1.942.958-.493.64-.739 1.553-.739 2.743zm13.237-4.316c1.195 0 2.15.401 2.865 1.204.721.797 1.081 1.849 1.081 3.155v.15c0 .896-.173 1.7-.519 2.408a3.859 3.859 0 01-1.494 1.644c-.644.386-1.388.58-2.232.58-1.277 0-2.306-.425-3.085-1.275-.779-.855-1.169-2-1.169-3.436v-.791c0-1.998.369-3.586 1.107-4.764.745-1.178 1.84-1.895 3.288-2.153.82-.147 1.374-.325 1.661-.536a1.02 1.02 0 00.43-.87h1.336c0 .732-.167 1.303-.501 1.713-.328.41-.855.7-1.582.87l-1.213.273c-.966.229-1.693.615-2.179 1.16-.481.54-.794 1.26-.941 2.162.862-.996 1.91-1.494 3.147-1.494zm-.317 1.336c-.797 0-1.429.27-1.898.809-.469.533-.703 1.274-.703 2.223v.14c0 1.02.234 1.83.703 2.427.474.592 1.113.887 1.916.887.808 0 1.447-.298 1.916-.896.469-.598.703-1.47.703-2.62 0-.896-.237-1.614-.712-2.152-.469-.545-1.11-.818-1.925-.818zM268.29 118.592h-6.17v3.832h3.182c1.336.017 2.379.36 3.129 1.028s1.125 1.576 1.125 2.725c0 1.154-.378 2.074-1.134 2.76-.756.685-1.787 1.04-3.094 1.063h-4.904v-12.797h7.866v1.389zm-6.17 5.22v4.808h3.085c.838 0 1.488-.223 1.951-.668.469-.445.703-1.043.703-1.793 0-.721-.225-1.289-.676-1.705-.446-.416-1.081-.63-1.908-.642h-3.155zm9.035 1.345c0-.931.182-1.769.545-2.513.369-.745.879-1.319 1.529-1.723.657-.404 1.404-.607 2.242-.607 1.295 0 2.341.449 3.137 1.345.803.897 1.204 2.089 1.204 3.577v.115c0 .925-.178 1.757-.536 2.496a4.008 4.008 0 01-1.52 1.714c-.656.41-1.412.615-2.268.615-1.289 0-2.335-.448-3.137-1.345-.797-.896-1.196-2.083-1.196-3.56v-.114zm1.635.194c0 1.054.243 1.901.73 2.54.492.638 1.148.958 1.968.958.826 0 1.483-.323 1.969-.967.486-.651.73-1.559.73-2.725 0-1.043-.249-1.886-.748-2.531-.492-.65-1.148-.976-1.968-.976-.803 0-1.45.32-1.943.958-.492.639-.738 1.553-.738 2.743zm16.717-4.861V130h-1.635v-8.165h-3.234l-.194 3.56c-.105 1.634-.381 2.803-.826 3.506-.439.703-1.139 1.07-2.1 1.099h-.651v-1.433l.466-.035c.527-.058.905-.363 1.134-.914.228-.551.375-1.57.439-3.058l.176-4.07h6.425zm4.386 3.279h2.469c1.078.011 1.931.293 2.558.843.627.551.94 1.298.94 2.242 0 .949-.322 1.71-.966 2.285-.645.574-1.512.861-2.602.861h-4.025v-9.51h1.626v3.279zm0 1.327v3.577h2.417c.609 0 1.081-.155 1.415-.466.334-.316.501-.747.501-1.292 0-.527-.164-.958-.493-1.292-.322-.34-.776-.516-1.362-.527h-2.478zM306.505 130v-9.51h3.709c1.265 0 2.235.223 2.909.668.68.44 1.02 1.087 1.02 1.943 0 .439-.132.837-.396 1.195-.264.351-.653.621-1.169.808.574.135 1.034.399 1.38.792.352.392.527.861.527 1.406 0 .873-.322 1.541-.966 2.004-.639.463-1.544.694-2.716.694h-4.298zm1.626-4.175v2.865h2.689c.68 0 1.187-.126 1.521-.378.34-.251.51-.606.51-1.063 0-.949-.698-1.424-2.092-1.424h-2.628zm0-1.301h2.1c1.524 0 2.286-.445 2.286-1.336 0-.89-.721-1.35-2.163-1.379h-2.223v2.715zm19.116-2.689h-4.386V130h-1.634v-9.51h6.02v1.345zm.809 3.322c0-.931.181-1.769.545-2.513.369-.745.878-1.319 1.529-1.723.656-.404 1.403-.607 2.241-.607 1.295 0 2.341.449 3.138 1.345.803.897 1.204 2.089 1.204 3.577v.115c0 .925-.179 1.757-.536 2.496a4.017 4.017 0 01-1.521 1.714c-.656.41-1.412.615-2.267.615-1.289 0-2.335-.448-3.138-1.345-.797-.896-1.195-2.083-1.195-3.56v-.114zm1.634.194c0 1.054.244 1.901.73 2.54.492.638 1.148.958 1.969.958.826 0 1.482-.323 1.968-.967.487-.651.73-1.559.73-2.725 0-1.043-.249-1.886-.747-2.531-.492-.65-1.149-.976-1.969-.976-.803 0-1.45.32-1.942.958-.492.639-.739 1.553-.739 2.743zm17.095 0c0 1.447-.331 2.613-.993 3.498-.662.884-1.559 1.327-2.689 1.327-1.155 0-2.063-.366-2.725-1.099v4.579h-1.626V120.49h1.485l.079 1.055c.663-.82 1.582-1.231 2.76-1.231 1.143 0 2.045.431 2.707 1.292.668.862 1.002 2.06 1.002 3.595v.15zm-1.626-.185c0-1.072-.228-1.919-.685-2.54-.457-.621-1.084-.932-1.881-.932-.985 0-1.723.437-2.215 1.31v4.544c.486.867 1.23 1.301 2.232 1.301.78 0 1.398-.308 1.855-.923.463-.621.694-1.541.694-2.76zm11.373-4.676V130h-1.635v-8.165h-3.234l-.193 3.56c-.106 1.634-.381 2.803-.826 3.506-.44.703-1.14 1.07-2.101 1.099h-.65v-1.433l.465-.035c.528-.058.906-.363 1.134-.914.229-.551.375-1.57.44-3.058l.175-4.07h6.425zm6.557 9.686c-1.289 0-2.338-.422-3.147-1.266-.808-.849-1.213-1.983-1.213-3.401v-.299c0-.943.179-1.784.537-2.522.363-.745.867-1.325 1.511-1.741a3.805 3.805 0 012.11-.633c1.236 0 2.197.408 2.883 1.222.685.815 1.028 1.981 1.028 3.498v.677h-6.443c.024.937.296 1.696.818 2.276.527.575 1.195.862 2.004.862.574 0 1.06-.118 1.459-.352a3.666 3.666 0 001.046-.932l.993.774c-.797 1.224-1.992 1.837-3.586 1.837zm-.202-8.526c-.657 0-1.207.241-1.653.721-.445.475-.72 1.143-.826 2.004h4.764v-.123c-.047-.826-.27-1.465-.668-1.916-.399-.457-.938-.686-1.617-.686zm-95.836-65.01c0-.68-.249-1.22-.747-1.617-.492-.405-1.187-.607-2.083-.607-.75 0-1.38.208-1.89.624-.504.41-.756.92-.756 1.53h-1.687c0-.68.184-1.29.553-1.829.375-.539.897-.958 1.565-1.257a5.284 5.284 0 012.215-.457c1.429 0 2.54.323 3.331.967.791.639 1.186 1.53 1.186 2.672 0 .592-.181 1.13-.545 1.617-.363.486-.87.87-1.52 1.152 1.506.503 2.259 1.502 2.259 2.997 0 1.148-.428 2.06-1.284 2.733-.855.674-1.998 1.01-3.427 1.01-.85 0-1.623-.149-2.321-.447-.691-.305-1.23-.736-1.617-1.292-.387-.557-.58-1.22-.58-1.987h1.688c0 .674.266 1.236.799 1.688.534.445 1.21.668 2.031.668.92 0 1.652-.214 2.197-.642.551-.428.826-.993.826-1.696 0-1.5-.929-2.265-2.786-2.294h-1.582v-1.389h1.573c.856-.017 1.503-.21 1.943-.58.439-.369.659-.89.659-1.564zm9.738 9.36c-.094-.188-.17-.522-.228-1.002-.756.785-1.659 1.178-2.707 1.178-.938 0-1.708-.264-2.312-.791-.598-.533-.896-1.207-.896-2.022 0-.99.375-1.758 1.125-2.303.755-.55 1.816-.826 3.181-.826h1.582v-.747c0-.568-.17-1.02-.51-1.353-.339-.34-.84-.51-1.503-.51-.58 0-1.066.146-1.459.44-.392.292-.588.647-.588 1.063h-1.635c0-.475.167-.932.501-1.371.34-.446.797-.797 1.371-1.055a4.643 4.643 0 011.907-.386c1.096 0 1.954.275 2.575.826.621.544.944 1.297.967 2.258v4.377c0 .873.111 1.568.334 2.083V66h-1.705zm-2.698-1.24c.51 0 .993-.131 1.45-.395.457-.263.788-.606.993-1.028v-1.951h-1.274c-1.992 0-2.989.583-2.989 1.749 0 .51.17.908.51 1.195.34.287.777.43 1.31.43zm14.414-8.27V66h-1.635v-8.165h-3.234l-.194 3.56c-.105 1.634-.38 2.803-.826 3.506-.439.704-1.139 1.07-2.1 1.099h-.651v-1.433l.466-.035c.527-.058.905-.363 1.134-.914.228-.55.375-1.57.439-3.058l.176-4.07h6.425zm2.18 4.667c0-.931.181-1.77.544-2.513.37-.745.879-1.319 1.53-1.723.656-.404 1.403-.606 2.241-.606 1.295 0 2.341.448 3.138 1.344.802.897 1.204 2.089 1.204 3.577v.115c0 .925-.179 1.757-.536 2.496a4.01 4.01 0 01-1.521 1.714c-.656.41-1.412.615-2.267.615-1.289 0-2.335-.448-3.138-1.345-.797-.896-1.195-2.083-1.195-3.56v-.114zm1.634.194c0 1.054.243 1.901.73 2.54.492.638 1.148.958 1.969.958.826 0 1.482-.323 1.968-.967.487-.65.73-1.559.73-2.725 0-1.043-.249-1.886-.747-2.531-.492-.65-1.149-.976-1.969-.976-.803 0-1.45.32-1.942.958-.493.64-.739 1.553-.739 2.743zm16.453.519h-1.142V66h-1.626v-4.13h-1.143L302.198 66h-2.056l3.401-4.922-3.076-4.588h1.969l2.452 3.938h1.116V56.49h1.626v3.938h1.107l2.47-3.938h1.969l-3.085 4.597L313.492 66h-2.056l-2.664-4.13zm9.967 4.306c-1.289 0-2.338-.422-3.146-1.266-.809-.85-1.213-1.983-1.213-3.401v-.299c0-.943.179-1.784.536-2.523.363-.744.867-1.324 1.512-1.74a3.8 3.8 0 012.109-.633c1.236 0 2.197.408 2.883 1.222.685.815 1.028 1.98 1.028 3.498v.677h-6.442c.023.937.296 1.696.817 2.276.528.574 1.196.862 2.004.862.574 0 1.061-.118 1.459-.352a3.662 3.662 0 001.046-.932l.993.774c-.797 1.225-1.992 1.837-3.586 1.837zm-.202-8.526a2.16 2.16 0 00-1.652.721c-.446.475-.721 1.143-.826 2.004h4.763v-.123c-.047-.826-.269-1.465-.668-1.916-.398-.457-.937-.686-1.617-.686zm13.57 8.35h-1.626v-4.06h-4.368V66h-1.634v-9.51h1.634v4.122h4.368V56.49h1.626V66zm10.389 0h-1.626v-4.06h-4.368V66h-1.635v-9.51h1.635v4.122h4.368V56.49h1.626V66zm2.189-4.843c0-.931.181-1.77.544-2.513.37-.745.879-1.319 1.53-1.723.656-.404 1.403-.606 2.241-.606 1.295 0 2.341.448 3.138 1.344.802.897 1.204 2.089 1.204 3.577v.115c0 .925-.179 1.757-.536 2.496a4.01 4.01 0 01-1.521 1.714c-.656.41-1.412.615-2.267.615-1.289 0-2.335-.448-3.138-1.345-.797-.896-1.195-2.083-1.195-3.56v-.114zm1.634.194c0 1.054.243 1.901.73 2.54.492.638 1.148.958 1.969.958.826 0 1.482-.323 1.968-.967.487-.65.73-1.559.73-2.725 0-1.043-.249-1.886-.747-2.531-.492-.65-1.149-.976-1.969-.976-.803 0-1.45.32-1.942.958-.493.64-.739 1.553-.739 2.743zm12.876 3.498c.58 0 1.087-.176 1.521-.528.433-.351.674-.79.721-1.318h1.538c-.03.545-.217 1.063-.563 1.556a3.692 3.692 0 01-1.389 1.177 3.965 3.965 0 01-1.828.44c-1.295 0-2.326-.43-3.093-1.292-.762-.867-1.143-2.051-1.143-3.551v-.273c0-.925.17-1.748.51-2.47.34-.72.826-1.28 1.459-1.678.638-.398 1.391-.597 2.259-.597 1.066 0 1.951.319 2.654.958.709.638 1.087 1.467 1.134 2.487h-1.538c-.047-.615-.282-1.12-.704-1.512-.416-.398-.931-.598-1.546-.598-.827 0-1.468.3-1.925.897-.451.592-.677 1.45-.677 2.575v.308c0 1.095.226 1.94.677 2.53.451.593 1.095.889 1.933.889zm12.674-7.04h-3.19V66h-1.626v-8.191h-3.129V56.49h7.945v1.319zm3.358 1.96h2.469c1.078.011 1.931.293 2.558.843.627.551.94 1.298.94 2.241 0 .95-.322 1.711-.966 2.286-.645.574-1.512.861-2.602.861h-4.025v-9.51h1.626v3.279zm0 1.327v3.577h2.417c.609 0 1.081-.155 1.415-.466.334-.316.501-.747.501-1.292 0-.527-.164-.958-.493-1.292-.322-.34-.776-.516-1.362-.527h-2.478zM395.459 66h-1.626v-4.06h-4.368V66h-1.635v-9.51h1.635v4.122h4.368V56.49h1.626V66zm2.188-4.843c0-.931.182-1.77.545-2.513.37-.745.879-1.319 1.53-1.723.656-.404 1.403-.606 2.241-.606 1.295 0 2.341.448 3.138 1.344.802.897 1.204 2.089 1.204 3.577v.115c0 .925-.179 1.757-.536 2.496a4.01 4.01 0 01-1.521 1.714c-.656.41-1.412.615-2.268.615-1.289 0-2.334-.448-3.137-1.345-.797-.896-1.196-2.083-1.196-3.56v-.114zm1.635.194c0 1.054.243 1.901.73 2.54.492.638 1.148.958 1.968.958.827 0 1.483-.323 1.969-.967.487-.65.73-1.559.73-2.725 0-1.043-.249-1.886-.747-2.531-.493-.65-1.149-.976-1.969-.976-.803 0-1.45.32-1.942.958-.493.64-.739 1.553-.739 2.743zm12.876 3.498c.58 0 1.087-.176 1.521-.528.433-.351.674-.79.72-1.318h1.539c-.03.545-.217 1.063-.563 1.556a3.7 3.7 0 01-1.389 1.177 3.965 3.965 0 01-1.828.44c-1.295 0-2.326-.43-3.094-1.292-.761-.867-1.142-2.051-1.142-3.551v-.273c0-.925.17-1.748.51-2.47.339-.72.826-1.28 1.459-1.678.638-.398 1.391-.597 2.258-.597 1.067 0 1.952.319 2.655.958.709.638 1.087 1.467 1.134 2.487h-1.539c-.046-.615-.281-1.12-.703-1.512-.416-.398-.931-.598-1.547-.598-.826 0-1.467.3-1.924.897-.452.592-.677 1.45-.677 2.575v.308c0 1.095.225 1.94.677 2.53.451.593 1.095.889 1.933.889zM423.637 66c-.094-.188-.17-.522-.229-1.002-.756.785-1.658 1.178-2.707 1.178-.937 0-1.708-.264-2.311-.791-.598-.533-.897-1.207-.897-2.022 0-.99.375-1.758 1.125-2.303.756-.55 1.817-.826 3.182-.826h1.582v-.747c0-.568-.17-1.02-.51-1.353-.34-.34-.841-.51-1.503-.51-.58 0-1.066.146-1.459.44-.392.292-.589.647-.589 1.063h-1.634c0-.475.167-.932.501-1.371.339-.446.796-.797 1.371-1.055a4.64 4.64 0 011.907-.386c1.096 0 1.954.275 2.575.826.621.544.943 1.297.967 2.258v4.377c0 .873.111 1.568.334 2.083V66h-1.705zm-2.699-1.24c.51 0 .994-.131 1.451-.395.457-.263.788-.606.993-1.028v-1.951h-1.275c-1.992 0-2.988.583-2.988 1.749 0 .51.17.908.51 1.195.34.287.776.43 1.309.43zm-157.13 27.492h-1.556V98h-1.688V85.203h1.688v5.643h1.318l4.474-5.643h2.101l-4.887 6.205L270.505 98h-2.066l-4.631-5.748zM277.668 98c-.094-.188-.17-.522-.229-1.002-.755.785-1.658 1.178-2.707 1.178-.937 0-1.708-.264-2.311-.791-.598-.533-.897-1.207-.897-2.022 0-.99.375-1.757 1.125-2.302.756-.551 1.817-.827 3.182-.827h1.582v-.747c0-.568-.17-1.02-.51-1.353-.34-.34-.841-.51-1.503-.51-.58 0-1.066.147-1.459.44-.392.292-.588.647-.588 1.063h-1.635c0-.475.167-.932.501-1.371.34-.445.797-.797 1.371-1.055a4.643 4.643 0 011.907-.386c1.096 0 1.954.275 2.575.826.621.544.944 1.297.967 2.258v4.377c0 .873.111 1.568.334 2.083V98h-1.705zm-2.698-1.24c.509 0 .993-.131 1.45-.395.457-.263.788-.606.993-1.028v-1.951h-1.274c-1.993 0-2.989.583-2.989 1.749 0 .51.17.908.51 1.195.34.287.777.43 1.31.43zm8.393-8.27v8.183h3.481V88.49h1.626v8.183h3.471V88.49h1.635V98h-11.847v-9.51h1.634zm16.726 9.686c-1.289 0-2.338-.422-3.147-1.266-.808-.85-1.213-1.983-1.213-3.401v-.299c0-.943.179-1.784.537-2.522.363-.745.867-1.325 1.511-1.74a3.806 3.806 0 012.11-.633c1.236 0 2.197.407 2.883 1.221.685.815 1.028 1.98 1.028 3.498v.677h-6.443c.024.937.296 1.696.818 2.276.527.575 1.195.862 2.004.862.574 0 1.06-.118 1.459-.352a3.675 3.675 0 001.046-.932l.993.774c-.797 1.225-1.992 1.837-3.586 1.837zm-.202-8.526c-.657 0-1.207.24-1.653.721-.445.475-.72 1.143-.826 2.004h4.764v-.123c-.047-.826-.27-1.465-.668-1.916-.399-.457-.938-.686-1.617-.686zm13.596-1.16V98h-1.634v-8.165h-3.235l-.193 3.56c-.106 1.634-.381 2.803-.826 3.506-.44.704-1.14 1.07-2.101 1.099h-.65v-1.433l.466-.035c.527-.058.905-.363 1.133-.914.229-.55.375-1.57.44-3.058l.176-4.07h6.424zm4.386 3.279h2.47c1.078.011 1.931.292 2.557.843.627.551.941 1.298.941 2.242 0 .949-.322 1.71-.967 2.285-.644.574-1.512.861-2.601.861h-4.026v-9.51h1.626v3.279zm0 1.327v3.577h2.417c.61 0 1.081-.155 1.415-.466.334-.316.501-.747.501-1.292 0-.527-.164-.958-.492-1.292-.322-.34-.776-.516-1.362-.527h-2.479zm7.945 7.453l-.922-.633c.55-.768.837-1.559.861-2.373v-1.468h1.591v1.275c0 .591-.147 1.183-.44 1.775-.287.592-.65 1.066-1.09 1.424zM341.046 98h-1.635v-3.445a8.623 8.623 0 01-2.197.28c-1.19 0-2.098-.304-2.725-.913-.621-.61-.937-1.477-.949-2.602v-2.839h1.626v2.892c.029 1.418.712 2.127 2.048 2.127.75 0 1.482-.094 2.197-.281V88.49h1.635V98zm8.763-9.51h1.626V98h-1.626v-6.935L345.423 98h-1.626v-9.51h1.626v6.944l4.386-6.944zm7.426 3.472l2.11-3.472h1.898l-3.111 4.702L361.34 98h-1.881l-2.197-3.56-2.198 3.56h-1.889l3.208-4.808-3.112-4.702h1.881l2.083 3.472zM368.846 98c-.094-.188-.17-.522-.229-1.002-.756.785-1.658 1.178-2.707 1.178-.937 0-1.708-.264-2.311-.791-.598-.533-.897-1.207-.897-2.022 0-.99.375-1.757 1.125-2.302.756-.551 1.817-.827 3.182-.827h1.582v-.747c0-.568-.17-1.02-.51-1.353-.34-.34-.841-.51-1.503-.51-.58 0-1.066.147-1.459.44-.392.292-.589.647-.589 1.063h-1.634c0-.475.166-.932.5-1.371.34-.445.797-.797 1.372-1.055a4.64 4.64 0 011.907-.386c1.096 0 1.954.275 2.575.826.621.544.943 1.297.967 2.258v4.377c0 .873.111 1.568.334 2.083V98h-1.705zm-2.699-1.24c.51 0 .994-.131 1.451-.395.457-.263.788-.606.993-1.028v-1.951h-1.275c-1.992 0-2.988.583-2.988 1.749 0 .51.17.908.51 1.195.34.287.776.43 1.309.43zM380.535 98h-1.626v-4.06h-4.368V98h-1.635v-9.51h1.635v4.122h4.368V88.49h1.626V98zm8.772-9.51h1.626V98h-1.626v-6.935L384.921 98h-1.626v-9.51h1.626v6.944l4.386-6.944zm8.182 9.686c-1.289 0-2.338-.422-3.146-1.266-.809-.85-1.213-1.983-1.213-3.401v-.299c0-.943.179-1.784.536-2.522.363-.745.867-1.325 1.512-1.74a3.8 3.8 0 012.109-.633c1.236 0 2.197.407 2.883 1.221.685.815 1.028 1.98 1.028 3.498v.677h-6.442c.023.937.296 1.696.817 2.276.528.575 1.196.862 2.004.862.574 0 1.061-.118 1.459-.352a3.662 3.662 0 001.046-.932l.993.774c-.797 1.225-1.992 1.837-3.586 1.837zm-.202-8.526a2.16 2.16 0 00-1.652.721c-.446.475-.721 1.143-.826 2.004h4.763v-.123c-.047-.826-.269-1.465-.668-1.916-.398-.457-.937-.686-1.617-.686zm-98.958 122.365c0 1.254-.211 2.349-.633 3.287-.422.931-1.019 1.643-1.793 2.136-.773.492-1.675.738-2.707.738-1.008 0-1.901-.246-2.68-.738-.78-.499-1.386-1.205-1.82-2.119-.427-.92-.647-1.983-.659-3.19v-.923c0-1.23.214-2.317.642-3.261.427-.943 1.031-1.664 1.81-2.162.785-.504 1.682-.756 2.69-.756 1.025 0 1.927.249 2.707.747.785.493 1.388 1.21 1.81 2.154.422.937.633 2.03.633 3.278v.809zm-1.679-.827c0-1.517-.304-2.68-.914-3.489-.609-.814-1.462-1.221-2.557-1.221-1.067 0-1.908.407-2.523 1.221-.609.809-.923 1.934-.94 3.375v.941c0 1.47.307 2.628.923 3.471.621.838 1.473 1.257 2.557 1.257 1.09 0 1.934-.395 2.532-1.186.597-.797.905-1.937.922-3.419v-.95zm5.634-2.698v8.183h3.481v-8.183h1.626v8.183h3.471v-8.183h1.635v8.183h1.336l-.158 4.148h-1.459V218h-11.567v-9.51h1.635zm16.321 7.128l2.215-7.128h1.741l-3.824 10.978c-.591 1.582-1.532 2.373-2.821 2.373l-.308-.027-.606-.114v-1.318l.439.035c.551 0 .979-.111 1.284-.334.31-.223.565-.63.764-1.222l.361-.966-3.393-9.405h1.775l2.373 7.128zm7.093-7.128v8.183h3.481v-8.183h1.626v8.183h3.471v-8.183h1.635v8.183h1.336l-.158 4.148h-1.459V218h-11.567v-9.51h1.635zm17.262 9.686c-1.289 0-2.338-.422-3.147-1.266-.808-.849-1.212-1.983-1.212-3.401v-.299c0-.943.178-1.784.536-2.522.363-.745.867-1.325 1.511-1.741a3.805 3.805 0 012.11-.633c1.236 0 2.197.408 2.883 1.222.685.815 1.028 1.981 1.028 3.498v.677h-6.442c.023.937.295 1.696.817 2.276.527.575 1.195.862 2.004.862.574 0 1.06-.118 1.459-.352a3.666 3.666 0 001.046-.932l.993.774c-.797 1.224-1.992 1.837-3.586 1.837zm-.202-8.526c-.656 0-1.207.241-1.653.721-.445.475-.72 1.143-.826 2.004h4.764v-.123c-.047-.826-.27-1.465-.668-1.916-.398-.457-.937-.686-1.617-.686zm13.57 8.35h-1.626v-4.061h-4.368V218h-1.635v-9.51h1.635v4.122h4.368v-4.122h1.626V218zm8.772-9.51h1.626V218H365.1v-6.935L360.714 218h-1.626v-9.51h1.626v6.944l4.386-6.944zm8.182 9.686c-1.289 0-2.338-.422-3.146-1.266-.809-.849-1.213-1.983-1.213-3.401v-.299c0-.943.179-1.784.536-2.522.363-.745.867-1.325 1.512-1.741a3.8 3.8 0 012.109-.633c1.236 0 2.197.408 2.883 1.222.685.815 1.028 1.981 1.028 3.498v.677h-6.442c.023.937.296 1.696.817 2.276.528.575 1.196.862 2.004.862.574 0 1.061-.118 1.459-.352a3.653 3.653 0 001.046-.932l.993.774c-.797 1.224-1.992 1.837-3.586 1.837zm-.202-8.526c-.656 0-1.207.241-1.652.721-.446.475-.721 1.143-.826 2.004h4.763v-.123c-.047-.826-.269-1.465-.668-1.916-.398-.457-.937-.686-1.617-.686zm17.332.159h-3.19V218h-1.626v-8.191h-3.129v-1.319h7.945v1.319zm8.851-1.319V218h-1.635v-3.7h-2.452l-2.241 3.7h-1.758l2.39-3.946c-.609-.223-1.078-.566-1.406-1.029-.322-.468-.483-1.013-.483-1.634 0-.868.325-1.565.975-2.092.651-.533 1.521-.803 2.611-.809h3.999zm-5.951 2.918c0 .463.159.838.475 1.125.317.281.735.425 1.257.431h2.584v-3.155h-2.338c-.603 0-1.084.149-1.441.448a1.416 1.416 0 00-.537 1.151zm16.146 2.461h-1.143V218h-1.626v-4.131h-1.142L402.884 218h-2.057l3.402-4.922-3.077-4.588h1.969l2.452 3.938h1.116v-3.938h1.626v3.938h1.108l2.47-3.938h1.968l-3.085 4.597 3.402 4.913h-2.057l-2.663-4.131zm9.967 4.307c-1.289 0-2.338-.422-3.147-1.266-.808-.849-1.213-1.983-1.213-3.401v-.299c0-.943.179-1.784.537-2.522.363-.745.867-1.325 1.511-1.741a3.805 3.805 0 012.11-.633c1.236 0 2.197.408 2.882 1.222.686.815 1.029 1.981 1.029 3.498v.677h-6.443c.024.937.296 1.696.818 2.276.527.575 1.195.862 2.004.862.574 0 1.06-.118 1.459-.352a3.666 3.666 0 001.046-.932l.993.774c-.797 1.224-1.992 1.837-3.586 1.837zm-.202-8.526c-.657 0-1.207.241-1.653.721-.445.475-.72 1.143-.826 2.004h4.764v-.123c-.047-.826-.27-1.465-.668-1.916-.399-.457-.938-.686-1.617-.686zm9.615 7.199c.58 0 1.087-.176 1.52-.528.434-.351.674-.791.721-1.318h1.538c-.029.545-.217 1.063-.562 1.556a3.7 3.7 0 01-1.389 1.177 3.968 3.968 0 01-1.828.44c-1.295 0-2.326-.431-3.094-1.292-.762-.867-1.142-2.051-1.142-3.551v-.272c0-.926.169-1.749.509-2.47.34-.721.827-1.28 1.459-1.679.639-.398 1.392-.598 2.259-.598 1.067 0 1.951.32 2.654.958.709.639 1.087 1.468 1.134 2.488h-1.538c-.047-.615-.281-1.119-.703-1.512-.416-.398-.932-.598-1.547-.598-.826 0-1.468.299-1.925.897-.451.592-.676 1.45-.676 2.575v.308c0 1.095.225 1.939.676 2.531.451.592 1.096.888 1.934.888zm12.674-7.04h-3.191V218h-1.626v-8.191h-3.129v-1.319h7.946v1.319zm7.734-1.319h1.626V218h-1.626v-6.935L444.86 218h-1.626v-9.51h1.626v6.944l4.386-6.944zm8.851 9.51v-9.51h3.709c1.265 0 2.235.223 2.909.668.68.44 1.019 1.087 1.019 1.943 0 .439-.131.837-.395 1.195-.264.351-.653.621-1.169.808.574.135 1.034.399 1.38.792.351.392.527.861.527 1.406 0 .873-.322 1.541-.967 2.004-.638.463-1.544.694-2.715.694h-4.298zm1.626-4.175v2.865h2.689c.68 0 1.187-.126 1.521-.378.339-.251.509-.606.509-1.063 0-.949-.697-1.424-2.091-1.424h-2.628zm0-1.301h2.1c1.524 0 2.285-.445 2.285-1.336 0-.89-.72-1.35-2.162-1.379h-2.223v2.715zm19.116-2.689h-4.386V218h-1.635v-9.51h6.021v1.345zm9.448 3.516c0 1.447-.331 2.613-.993 3.498-.662.884-1.559 1.327-2.69 1.327-1.154 0-2.062-.366-2.724-1.099v4.579h-1.626V208.49h1.485l.079 1.055c.662-.82 1.582-1.231 2.76-1.231 1.143 0 2.045.431 2.707 1.292.668.862 1.002 2.06 1.002 3.595v.15zm-1.626-.185c0-1.072-.228-1.919-.685-2.54-.457-.621-1.084-.932-1.881-.932-.985 0-1.723.437-2.215 1.31v4.544c.486.867 1.23 1.301 2.232 1.301.78 0 1.398-.308 1.855-.923.463-.621.694-1.541.694-2.76zm6.706 2.452l2.215-7.128h1.74l-3.823 10.978c-.592 1.582-1.532 2.373-2.821 2.373l-.308-.027-.606-.114v-1.318l.439.035c.551 0 .979-.111 1.283-.334.311-.223.566-.63.765-1.222l.36-.966-3.392-9.405h1.775l2.373 7.128zm4.843 1.055l.562-.694c.633-.821.994-2.051 1.082-3.692l.149-3.797h6.126v8.183h1.222v4.122h-1.626V218h-6.636v2.795h-1.626l.009-4.122h.738zm1.925 0h4.368v-6.68h-2.927l-.097 2.268c-.099 1.892-.547 3.363-1.344 4.412zm15.17-8.183h1.626V218h-1.626v-6.935L510.919 218h-1.626v-9.51h1.626v6.944l4.386-6.944z" fill="#1A1A1A"/><path d="M93.032 49.506c-.5 21.5 18 42.5 18 48 0 26.5-24.588 34.81-41 46-11 7.5-16.5 2-35.5 12s-25 40-25 52 4 39 4 44.5-4 26-4 31-1.5 12-3 17-7 27-6.5 35.5h37.5c-.833-5-1.4-18.5 3-28.5s8.833-51.166 10.5-70.5c3.833 18.5 11.6 57.3 12 64.5.4 7.2-3.5 26-5.5 34.5h152.5c-1.167-5.333-3.6-16.5-4-18.5-.5-2.5-4-22-1.5-28 2-4.8 8.5-38.666 11.5-55 .5 7.834 1.7 25.5 2.5 33.5 1 10 10.5 44.5 11.5 49.5.8 4-.333 14-1 18.5h35.5c.167-1.333.4-5.2 0-10-.5-6-4-35-6-41s-3-26.5-3-28.5-4.5-22.5-5-30 1-24-3.5-46-19.5-26-28-28-33.5-4.5-47-14c-10.8-7.6-12.5-20.833-12-26.5 2.667.5 10.1 1.5 18.5 1.5 10.5 0 7-15 8.5-17.5s-1-5.5 0-5.5 3.5-3.5 2.5-4.5c-.8-.8-1.333-3.666-1.5-5 2.167.167 6.5-.4 6.5-4 0-4.5-9.5-14-9.5-16.5 0-2 .667-6.5 1-8.5 0-19-15-48-52-47.5-26.5 0-40.5 24-41 45.5z" fill="#69B044"/><path stroke="#000" d="M191 61.5h56m-44 30h44m-92 33h92m-96 88h124"/><circle cx="185" cy="91" r="5" fill="#F64146" stroke="#fff" stroke-width="2"/><circle cx="173" cy="62" r="5" fill="#F64146" stroke="#fff" stroke-width="2"/><circle cx="138.032" cy="124.506" r="5" fill="#F64146" stroke="#fff" stroke-width="2"/><circle cx="133.032" cy="212.506" r="5" fill="#F64146" stroke="#fff" stroke-width="2"/><path stroke="#000" d="M159 29.5h88"/><circle cx="141" cy="30" r="5" fill="#F64146" stroke="#fff" stroke-width="2"/></svg>